%TF.GenerationSoftware,KiCad,Pcbnew,10.0.6*%
%TF.CreationDate,2026-10-08T20:11:11+02:00*%
%TF.ProjectId,Starbie,53746172-6269-4652-9e6b-696361645f70,rev?*%
%TF.SameCoordinates,Original*%
%TF.FileFunction,Soldermask,Top*%
%TF.FilePolarity,Negative*%
%FSLAX46Y46*%
G04 Gerber Fmt 4.6, Leading zero omitted, Abs format (unit mm)*
G04 Created by KiCad (PCBNEW 10.0.6) date 2026-10-08 20:11:11*
%MOMM*%
%LPD*%
G01*
G04 APERTURE LIST*
G04 Aperture macros list*
%AMRoundRect*
0 Rectangle with rounded corners*
0 $1 Rounding radius*
0 $2 $3 $4 $5 $6 $7 $8 $9 X,Y pos of 4 corners*
0 Add a 4 corners polygon primitive as box body*
4,1,4,$2,$3,$4,$5,$6,$7,$8,$9,$2,$3,0*
0 Add four circle primitives for the rounded corners*
1,1,$1+$1,$2,$3*
1,1,$1+$1,$4,$5*
1,1,$1+$1,$6,$7*
1,1,$1+$1,$8,$9*
0 Add four rect primitives between the rounded corners*
20,1,$1+$1,$2,$3,$4,$5,0*
20,1,$1+$1,$4,$5,$6,$7,0*
20,1,$1+$1,$6,$7,$8,$9,0*
20,1,$1+$1,$8,$9,$2,$3,0*%
G04 Aperture macros list end*
%ADD10C,0.100000*%
%ADD11O,1.700000X1.700000*%
%ADD12R,1.700000X1.700000*%
%ADD13O,3.800000X2.900000*%
%ADD14C,1.500000*%
%ADD15R,1.500000X1.500000*%
%ADD16C,1.700000*%
%ADD17C,4.000000*%
%ADD18C,2.200000*%
%ADD19RoundRect,0.152400X1.063600X0.609600X-1.063600X0.609600X-1.063600X-0.609600X1.063600X-0.609600X0*%
%ADD20C,1.524000*%
%ADD21RoundRect,0.152400X-1.063600X-0.609600X1.063600X-0.609600X1.063600X0.609600X-1.063600X0.609600X0*%
%ADD22C,1.400000*%
G04 APERTURE END LIST*
D10*
X118000000Y-52000000D02*
X228000000Y-52000000D01*
X228000000Y-135500000D01*
X118000000Y-135500000D01*
X118000000Y-52000000D01*
D11*
%TO.C,J1*%
X167866000Y-103249000D03*
X170406000Y-103249000D03*
X172946000Y-103249000D03*
D12*
X175486000Y-103249000D03*
D13*
X160500000Y-79500000D03*
X160500000Y-102614000D03*
X182852000Y-79500000D03*
X182852000Y-102614000D03*
%TD*%
D14*
%TO.C,U1*%
X168960000Y-74000000D03*
X171500000Y-74000000D03*
X174040000Y-74000000D03*
D15*
X176580000Y-74000000D03*
%TD*%
D16*
%TO.C,SW1*%
X142840000Y-90500000D03*
D17*
X147920000Y-90500000D03*
D16*
X153000000Y-90500000D03*
D18*
X150460000Y-85420000D03*
X144110000Y-87960000D03*
%TD*%
D12*
%TO.C,J2*%
X187500000Y-104460000D03*
D16*
X187500000Y-107000000D03*
X187500000Y-109540000D03*
X187500000Y-112080000D03*
X187500000Y-114620000D03*
X187500000Y-117160000D03*
X187500000Y-119700000D03*
X187500000Y-122240000D03*
%TD*%
D19*
%TO.C,U2*%
X187925000Y-84000000D03*
D20*
X188760000Y-84000000D03*
D19*
X187925000Y-86540000D03*
D20*
X188760000Y-86540000D03*
D19*
X187925000Y-89080000D03*
D20*
X188760000Y-89080000D03*
D19*
X187925000Y-91620000D03*
D20*
X188760000Y-91620000D03*
D19*
X187925000Y-94160000D03*
D20*
X188760000Y-94160000D03*
D19*
X187925000Y-96700000D03*
D20*
X188760000Y-96700000D03*
D19*
X187925000Y-99240000D03*
D20*
X188760000Y-99240000D03*
X204000000Y-99240000D03*
D21*
X204835000Y-99240000D03*
D20*
X204000000Y-96700000D03*
D21*
X204835000Y-96700000D03*
D20*
X204000000Y-94160000D03*
D21*
X204835000Y-94160000D03*
D20*
X204000000Y-91620000D03*
D21*
X204835000Y-91620000D03*
D20*
X204000000Y-89080000D03*
D21*
X204835000Y-89080000D03*
D20*
X204000000Y-86540000D03*
D21*
X204835000Y-86540000D03*
D20*
X204000000Y-84000000D03*
D21*
X204835000Y-84000000D03*
%TD*%
D16*
%TO.C,SW2*%
X151730000Y-114580000D03*
D17*
X156810000Y-114580000D03*
D16*
X161890000Y-114580000D03*
D18*
X159350000Y-109500000D03*
X153000000Y-112040000D03*
%TD*%
D22*
%TO.C,R1*%
X178310000Y-69500000D03*
X170690000Y-69500000D03*
%TD*%
M02*
