%TF.GenerationSoftware,KiCad,Pcbnew,10.0.6*%
%TF.CreationDate,2026-10-08T20:11:11+02:00*%
%TF.ProjectId,Starbie,53746172-6269-4652-9e6b-696361645f70,rev?*%
%TF.SameCoordinates,Original*%
%TF.FileFunction,Copper,L1,Top*%
%TF.FilePolarity,Positive*%
%FSLAX46Y46*%
G04 Gerber Fmt 4.6, Leading zero omitted, Abs format (unit mm)*
G04 Created by KiCad (PCBNEW 10.0.6) date 2026-10-08 20:11:11*
%MOMM*%
%LPD*%
G01*
G04 APERTURE LIST*
G04 Aperture macros list*
%AMRoundRect*
0 Rectangle with rounded corners*
0 $1 Rounding radius*
0 $2 $3 $4 $5 $6 $7 $8 $9 X,Y pos of 4 corners*
0 Add a 4 corners polygon primitive as box body*
4,1,4,$2,$3,$4,$5,$6,$7,$8,$9,$2,$3,0*
0 Add four circle primitives for the rounded corners*
1,1,$1+$1,$2,$3*
1,1,$1+$1,$4,$5*
1,1,$1+$1,$6,$7*
1,1,$1+$1,$8,$9*
0 Add four rect primitives between the rounded corners*
20,1,$1+$1,$2,$3,$4,$5,0*
20,1,$1+$1,$4,$5,$6,$7,0*
20,1,$1+$1,$6,$7,$8,$9,0*
20,1,$1+$1,$8,$9,$2,$3,0*%
G04 Aperture macros list end*
%TA.AperFunction,ComponentPad*%
%ADD10O,1.700000X1.700000*%
%TD*%
%TA.AperFunction,ComponentPad*%
%ADD11R,1.700000X1.700000*%
%TD*%
%TA.AperFunction,ComponentPad*%
%ADD12C,1.500000*%
%TD*%
%TA.AperFunction,ComponentPad*%
%ADD13R,1.500000X1.500000*%
%TD*%
%TA.AperFunction,ComponentPad*%
%ADD14C,2.200000*%
%TD*%
%TA.AperFunction,ComponentPad*%
%ADD15C,1.700000*%
%TD*%
%TA.AperFunction,SMDPad,CuDef*%
%ADD16RoundRect,0.152400X1.063600X0.609600X-1.063600X0.609600X-1.063600X-0.609600X1.063600X-0.609600X0*%
%TD*%
%TA.AperFunction,ComponentPad*%
%ADD17C,1.524000*%
%TD*%
%TA.AperFunction,SMDPad,CuDef*%
%ADD18RoundRect,0.152400X-1.063600X-0.609600X1.063600X-0.609600X1.063600X0.609600X-1.063600X0.609600X0*%
%TD*%
%TA.AperFunction,ComponentPad*%
%ADD19C,1.400000*%
%TD*%
%TA.AperFunction,Conductor*%
%ADD20C,0.200000*%
%TD*%
G04 APERTURE END LIST*
D10*
%TO.P,J1,4,Pin_4_4*%
%TO.N,/SDA*%
X167866000Y-103249000D03*
%TO.P,J1,3,Pin_3_3*%
%TO.N,/SCL*%
X170406000Y-103249000D03*
%TO.P,J1,2,Pin_2_2*%
%TO.N,+3.3V*%
X172946000Y-103249000D03*
D11*
%TO.P,J1,1,Pin_1_1*%
%TO.N,GND*%
X175486000Y-103249000D03*
%TD*%
D12*
%TO.P,U1,4,GND_4*%
%TO.N,GND*%
X168960000Y-74000000D03*
%TO.P,U1,3,NC_3*%
%TO.N,unconnected-(U1-NC-Pad3)*%
X171500000Y-74000000D03*
%TO.P,U1,2,DATA_2*%
%TO.N,/DHT11 DATA*%
X174040000Y-74000000D03*
D13*
%TO.P,U1,1,VDD_1*%
%TO.N,+3.3V*%
X176580000Y-74000000D03*
%TD*%
D14*
%TO.P,SW1,1,1_1*%
%TO.N,/GPIO2*%
X150460000Y-85420000D03*
%TO.P,SW1,2,2_2*%
%TO.N,GND*%
X144110000Y-87960000D03*
%TD*%
D11*
%TO.P,J2,1,Pin_1_1*%
%TO.N,+3.3V*%
X187500000Y-104460000D03*
D15*
%TO.P,J2,2,Pin_2_2*%
%TO.N,GND*%
X187500000Y-107000000D03*
%TO.P,J2,3,Pin_3_3*%
%TO.N,/SCL*%
X187500000Y-109540000D03*
%TO.P,J2,4,Pin_4_4*%
%TO.N,/SDA*%
X187500000Y-112080000D03*
%TO.P,J2,5,Pin_5_5*%
%TO.N,unconnected-(J2-Pin_5-Pad5)*%
X187500000Y-114620000D03*
%TO.P,J2,6,Pin_6_6*%
%TO.N,unconnected-(J2-Pin_6-Pad6)*%
X187500000Y-117160000D03*
%TO.P,J2,7,Pin_7_7*%
%TO.N,unconnected-(J2-Pin_7-Pad7)*%
X187500000Y-119700000D03*
%TO.P,J2,8,Pin_8_8*%
%TO.N,unconnected-(J2-Pin_8-Pad8)*%
X187500000Y-122240000D03*
%TD*%
D16*
%TO.P,U2,1,D0_1*%
%TO.N,unconnected-(U2-D0-Pad1)*%
X187925000Y-84000000D03*
D17*
%TO.N,unconnected-(U2-D0-Pad1)_1*%
X188760000Y-84000000D03*
D16*
%TO.P,U2,2,D1_2*%
%TO.N,/DHT11 DATA*%
X187925000Y-86540000D03*
D17*
X188760000Y-86540000D03*
D16*
%TO.P,U2,3,D2_3*%
%TO.N,/GPIO2*%
X187925000Y-89080000D03*
D17*
X188760000Y-89080000D03*
D16*
%TO.P,U2,4,D3_4*%
%TO.N,/GPIO3*%
X187925000Y-91620000D03*
D17*
X188760000Y-91620000D03*
D16*
%TO.P,U2,5,D4_5*%
%TO.N,/SCL*%
X187925000Y-94160000D03*
D17*
X188760000Y-94160000D03*
D16*
%TO.P,U2,6,D5_6*%
%TO.N,/SDA*%
X187925000Y-96700000D03*
D17*
X188760000Y-96700000D03*
D16*
%TO.P,U2,7,D6_7*%
%TO.N,unconnected-(U2-D6-Pad7)_1*%
X187925000Y-99240000D03*
D17*
%TO.N,unconnected-(U2-D6-Pad7)*%
X188760000Y-99240000D03*
%TO.P,U2,8,D7_8*%
%TO.N,unconnected-(U2-D7-Pad8)*%
X204000000Y-99240000D03*
D18*
%TO.N,unconnected-(U2-D7-Pad8)_1*%
X204835000Y-99240000D03*
D17*
%TO.P,U2,9,D8_9*%
%TO.N,unconnected-(U2-D8-Pad9)*%
X204000000Y-96700000D03*
D18*
%TO.N,unconnected-(U2-D8-Pad9)_1*%
X204835000Y-96700000D03*
D17*
%TO.P,U2,10,D9/BOOT_10*%
%TO.N,unconnected-(U2-D9{slash}BOOT-Pad10)*%
X204000000Y-94160000D03*
D18*
%TO.N,unconnected-(U2-D9{slash}BOOT-Pad10)_1*%
X204835000Y-94160000D03*
D17*
%TO.P,U2,11,D10_11*%
%TO.N,unconnected-(U2-D10-Pad11)*%
X204000000Y-91620000D03*
D18*
%TO.N,unconnected-(U2-D10-Pad11)_1*%
X204835000Y-91620000D03*
D17*
%TO.P,U2,12,3V3_OUT_12*%
%TO.N,+3.3V*%
X204000000Y-89080000D03*
D18*
X204835000Y-89080000D03*
D17*
%TO.P,U2,13,GND_13*%
%TO.N,GND*%
X204000000Y-86540000D03*
D18*
X204835000Y-86540000D03*
D17*
%TO.P,U2,14,VBUS_14*%
%TO.N,+5V*%
X204000000Y-84000000D03*
D18*
X204835000Y-84000000D03*
%TD*%
D14*
%TO.P,SW2,1,1_1*%
%TO.N,/GPIO3*%
X159350000Y-109500000D03*
%TO.P,SW2,2,2_2*%
%TO.N,GND*%
X153000000Y-112040000D03*
%TD*%
D19*
%TO.P,R1,1*%
%TO.N,+3.3V*%
X178310000Y-69500000D03*
%TO.P,R1,2*%
%TO.N,/DHT11 DATA*%
X170690000Y-69500000D03*
%TD*%
%TO.N,/GPIO2*%
D20*
X154120000Y-89080000D02*
X188760000Y-89080000D01*
X150460000Y-85420000D02*
X154120000Y-89080000D01*
%TO.N,+3.3V*%
X178310000Y-69500000D02*
X178310000Y-72270000D01*
X178310000Y-72270000D02*
X176580000Y-74000000D01*
%TO.N,/SCL*%
X189822000Y-107218000D02*
X189822000Y-95222000D01*
X170406000Y-103249000D02*
X176697000Y-109540000D01*
X187500000Y-109540000D02*
X189822000Y-107218000D01*
X188147786Y-94160000D02*
X188760000Y-94160000D01*
X176697000Y-109540000D02*
X187500000Y-109540000D01*
X189822000Y-95222000D02*
X188760000Y-94160000D01*
%TO.N,/SDA*%
X187500000Y-112080000D02*
X190222000Y-109358000D01*
X190222000Y-109358000D02*
X190222000Y-94120105D01*
X189199895Y-93098000D02*
X186669786Y-93098000D01*
X167866000Y-103249000D02*
X176697000Y-112080000D01*
X176697000Y-112080000D02*
X187500000Y-112080000D01*
X186409000Y-95426630D02*
X187682370Y-96700000D01*
X186409000Y-93358786D02*
X186409000Y-95426630D01*
X190222000Y-94120105D02*
X189199895Y-93098000D01*
X186669786Y-93098000D02*
X186409000Y-93358786D01*
X187682370Y-96700000D02*
X188760000Y-96700000D01*
%TO.N,/DHT11 DATA*%
X174040000Y-75060660D02*
X185519340Y-86540000D01*
X170690000Y-69500000D02*
X174040000Y-72850000D01*
X174040000Y-72850000D02*
X174040000Y-74000000D01*
X174040000Y-74000000D02*
X174040000Y-75060660D01*
X185519340Y-86540000D02*
X188760000Y-86540000D01*
%TO.N,/GPIO3*%
X159350000Y-109500000D02*
X177230000Y-91620000D01*
X177230000Y-91620000D02*
X188760000Y-91620000D01*
%TD*%
%TA.AperFunction,Conductor*%
%TO.N,GND*%
G36*
X186155009Y-92240185D02*
G01*
X186200764Y-92292989D01*
X186209435Y-92326465D01*
X186210274Y-92326312D01*
X186211413Y-92332552D01*
X186257434Y-92490954D01*
X186257436Y-92490959D01*
X186271708Y-92515093D01*
X186288889Y-92582817D01*
X186266729Y-92649079D01*
X186252657Y-92665893D01*
X186189266Y-92729284D01*
X185928481Y-92990068D01*
X185928479Y-92990071D01*
X185878361Y-93076880D01*
X185878359Y-93076882D01*
X185849425Y-93126995D01*
X185849424Y-93126996D01*
X185844050Y-93147053D01*
X185808499Y-93279729D01*
X185808499Y-93279731D01*
X185808499Y-93447832D01*
X185808500Y-93447845D01*
X185808500Y-95339960D01*
X185808499Y-95339978D01*
X185808499Y-95505684D01*
X185808498Y-95505684D01*
X185808499Y-95505687D01*
X185849423Y-95658415D01*
X185874887Y-95702520D01*
X185928477Y-95795342D01*
X185928481Y-95795347D01*
X186047349Y-95914215D01*
X186047355Y-95914220D01*
X186172181Y-96039046D01*
X186205666Y-96100369D01*
X186208500Y-96126727D01*
X186208500Y-97375541D01*
X186211412Y-97412546D01*
X186211413Y-97412552D01*
X186257434Y-97570954D01*
X186257435Y-97570957D01*
X186341405Y-97712943D01*
X186341412Y-97712952D01*
X186458047Y-97829587D01*
X186458050Y-97829589D01*
X186458053Y-97829592D01*
X186514996Y-97863268D01*
X186562679Y-97914338D01*
X186575182Y-97983079D01*
X186548536Y-98047669D01*
X186514996Y-98076732D01*
X186458053Y-98110408D01*
X186458047Y-98110412D01*
X186341412Y-98227047D01*
X186341405Y-98227056D01*
X186257435Y-98369042D01*
X186257434Y-98369045D01*
X186211413Y-98527447D01*
X186211412Y-98527453D01*
X186208500Y-98564458D01*
X186208500Y-99915541D01*
X186211412Y-99952546D01*
X186211413Y-99952552D01*
X186257434Y-100110954D01*
X186257435Y-100110957D01*
X186341405Y-100252943D01*
X186341412Y-100252952D01*
X186458047Y-100369587D01*
X186458051Y-100369590D01*
X186458053Y-100369592D01*
X186600041Y-100453564D01*
X186641816Y-100465701D01*
X186758447Y-100499586D01*
X186758450Y-100499586D01*
X186758452Y-100499587D01*
X186795466Y-100502500D01*
X186795474Y-100502500D01*
X189054526Y-100502500D01*
X189054534Y-100502500D01*
X189087771Y-100499884D01*
X189156148Y-100514248D01*
X189205905Y-100563299D01*
X189221500Y-100623502D01*
X189221500Y-106917902D01*
X189201815Y-106984941D01*
X189185181Y-107005583D01*
X189061681Y-107129083D01*
X189000358Y-107162568D01*
X188930666Y-107157584D01*
X188874733Y-107115712D01*
X188850316Y-107050248D01*
X188850000Y-107041402D01*
X188850000Y-106893753D01*
X188816757Y-106683872D01*
X188816757Y-106683869D01*
X188751095Y-106481782D01*
X188654624Y-106292449D01*
X188615270Y-106238282D01*
X188615269Y-106238282D01*
X187982962Y-106870590D01*
X187965925Y-106807007D01*
X187900099Y-106692993D01*
X187807007Y-106599901D01*
X187692993Y-106534075D01*
X187629409Y-106517037D01*
X188299627Y-105846818D01*
X188360950Y-105813333D01*
X188387307Y-105810499D01*
X188397872Y-105810499D01*
X188457483Y-105804091D01*
X188592331Y-105753796D01*
X188707546Y-105667546D01*
X188793796Y-105552331D01*
X188844091Y-105417483D01*
X188850500Y-105357873D01*
X188850499Y-103562128D01*
X188844091Y-103502517D01*
X188842779Y-103499000D01*
X188793797Y-103367671D01*
X188793793Y-103367664D01*
X188707547Y-103252455D01*
X188707544Y-103252452D01*
X188592335Y-103166206D01*
X188592328Y-103166202D01*
X188457482Y-103115908D01*
X188457483Y-103115908D01*
X188397883Y-103109501D01*
X188397881Y-103109500D01*
X188397873Y-103109500D01*
X188397864Y-103109500D01*
X186602129Y-103109500D01*
X186602123Y-103109501D01*
X186542516Y-103115908D01*
X186407671Y-103166202D01*
X186407664Y-103166206D01*
X186292455Y-103252452D01*
X186292452Y-103252455D01*
X186206206Y-103367664D01*
X186206202Y-103367671D01*
X186155908Y-103502517D01*
X186150158Y-103556007D01*
X186149501Y-103562123D01*
X186149500Y-103562135D01*
X186149500Y-105357870D01*
X186149501Y-105357876D01*
X186155908Y-105417483D01*
X186206202Y-105552328D01*
X186206206Y-105552335D01*
X186292452Y-105667544D01*
X186292455Y-105667547D01*
X186407664Y-105753793D01*
X186407671Y-105753797D01*
X186452618Y-105770561D01*
X186542517Y-105804091D01*
X186602127Y-105810500D01*
X186612685Y-105810499D01*
X186679723Y-105830179D01*
X186700372Y-105846818D01*
X187370591Y-106517037D01*
X187307007Y-106534075D01*
X187192993Y-106599901D01*
X187099901Y-106692993D01*
X187034075Y-106807007D01*
X187017037Y-106870591D01*
X186384728Y-106238282D01*
X186384727Y-106238282D01*
X186345380Y-106292439D01*
X186248904Y-106481782D01*
X186183242Y-106683869D01*
X186183242Y-106683872D01*
X186150000Y-106893753D01*
X186150000Y-107106246D01*
X186183242Y-107316127D01*
X186183242Y-107316130D01*
X186248904Y-107518217D01*
X186345375Y-107707550D01*
X186384728Y-107761716D01*
X187017037Y-107129408D01*
X187034075Y-107192993D01*
X187099901Y-107307007D01*
X187192993Y-107400099D01*
X187307007Y-107465925D01*
X187370590Y-107482962D01*
X186738282Y-108115269D01*
X186738282Y-108115270D01*
X186792452Y-108154626D01*
X186792451Y-108154626D01*
X186801495Y-108159234D01*
X186852292Y-108207208D01*
X186869087Y-108275029D01*
X186846550Y-108341164D01*
X186801499Y-108380202D01*
X186792182Y-108384949D01*
X186620213Y-108509890D01*
X186469890Y-108660213D01*
X186344948Y-108832184D01*
X186344947Y-108832185D01*
X186324765Y-108871795D01*
X186276791Y-108922591D01*
X186214281Y-108939500D01*
X176997098Y-108939500D01*
X176930059Y-108919815D01*
X176909417Y-108903181D01*
X174982798Y-106976562D01*
X172817416Y-104811181D01*
X172783931Y-104749858D01*
X172788915Y-104680166D01*
X172830787Y-104624233D01*
X172896251Y-104599816D01*
X172905097Y-104599500D01*
X173052286Y-104599500D01*
X173052287Y-104599500D01*
X173262243Y-104566246D01*
X173464412Y-104500557D01*
X173653816Y-104404051D01*
X173740478Y-104341088D01*
X173825784Y-104279110D01*
X173825784Y-104279109D01*
X173825792Y-104279104D01*
X173939717Y-104165178D01*
X174001036Y-104131696D01*
X174070728Y-104136680D01*
X174126662Y-104178551D01*
X174143577Y-104209528D01*
X174192646Y-104341088D01*
X174192649Y-104341093D01*
X174278809Y-104456187D01*
X174278812Y-104456190D01*
X174393906Y-104542350D01*
X174393913Y-104542354D01*
X174528620Y-104592596D01*
X174528627Y-104592598D01*
X174588155Y-104598999D01*
X174588172Y-104599000D01*
X175236000Y-104599000D01*
X175236000Y-103682012D01*
X175293007Y-103714925D01*
X175420174Y-103749000D01*
X175551826Y-103749000D01*
X175678993Y-103714925D01*
X175736000Y-103682012D01*
X175736000Y-104599000D01*
X176383828Y-104599000D01*
X176383844Y-104598999D01*
X176443372Y-104592598D01*
X176443379Y-104592596D01*
X176578086Y-104542354D01*
X176578093Y-104542350D01*
X176693187Y-104456190D01*
X176693190Y-104456187D01*
X176779350Y-104341093D01*
X176779354Y-104341086D01*
X176829596Y-104206379D01*
X176829598Y-104206372D01*
X176835999Y-104146844D01*
X176836000Y-104146827D01*
X176836000Y-103499000D01*
X175919012Y-103499000D01*
X175951925Y-103441993D01*
X175986000Y-103314826D01*
X175986000Y-103183174D01*
X175951925Y-103056007D01*
X175919012Y-102999000D01*
X176836000Y-102999000D01*
X176836000Y-102486149D01*
X180451500Y-102486149D01*
X180451500Y-102741850D01*
X180476635Y-102932757D01*
X180484874Y-102995340D01*
X180535204Y-103183174D01*
X180551050Y-103242312D01*
X180551053Y-103242322D01*
X180648894Y-103478531D01*
X180648899Y-103478542D01*
X180776734Y-103699957D01*
X180776745Y-103699973D01*
X180932388Y-103902811D01*
X180932394Y-103902818D01*
X181113181Y-104083605D01*
X181113187Y-104083610D01*
X181316035Y-104239261D01*
X181316042Y-104239265D01*
X181537457Y-104367100D01*
X181537462Y-104367102D01*
X181537465Y-104367104D01*
X181773687Y-104464950D01*
X182020660Y-104531126D01*
X182274157Y-104564500D01*
X182274164Y-104564500D01*
X183429836Y-104564500D01*
X183429843Y-104564500D01*
X183683340Y-104531126D01*
X183930313Y-104464950D01*
X184166535Y-104367104D01*
X184387965Y-104239261D01*
X184590813Y-104083610D01*
X184771610Y-103902813D01*
X184927261Y-103699965D01*
X185005043Y-103565243D01*
X185044556Y-103496806D01*
X185044557Y-103496804D01*
X185055096Y-103478549D01*
X185055100Y-103478542D01*
X185055104Y-103478535D01*
X185152950Y-103242313D01*
X185219126Y-102995340D01*
X185252500Y-102741843D01*
X185252500Y-102486157D01*
X185219126Y-102232660D01*
X185152950Y-101985687D01*
X185152947Y-101985679D01*
X185152946Y-101985676D01*
X185055105Y-101749468D01*
X185055100Y-101749457D01*
X184927265Y-101528042D01*
X184927261Y-101528035D01*
X184771610Y-101325187D01*
X184771605Y-101325181D01*
X184590818Y-101144394D01*
X184590811Y-101144388D01*
X184387973Y-100988745D01*
X184387971Y-100988743D01*
X184387965Y-100988739D01*
X184387960Y-100988736D01*
X184387957Y-100988734D01*
X184166542Y-100860899D01*
X184166531Y-100860894D01*
X183930322Y-100763053D01*
X183930315Y-100763051D01*
X183930313Y-100763050D01*
X183683340Y-100696874D01*
X183619742Y-100688501D01*
X183429850Y-100663500D01*
X183429843Y-100663500D01*
X182274157Y-100663500D01*
X182274149Y-100663500D01*
X182048826Y-100693165D01*
X182020660Y-100696874D01*
X181773687Y-100763050D01*
X181773677Y-100763053D01*
X181537468Y-100860894D01*
X181537457Y-100860899D01*
X181316042Y-100988734D01*
X181316026Y-100988745D01*
X181113188Y-101144388D01*
X181113181Y-101144394D01*
X180932394Y-101325181D01*
X180932388Y-101325188D01*
X180776745Y-101528026D01*
X180776734Y-101528042D01*
X180648899Y-101749457D01*
X180648894Y-101749468D01*
X180551054Y-101985676D01*
X180551050Y-101985687D01*
X180484874Y-102232661D01*
X180451500Y-102486149D01*
X176836000Y-102486149D01*
X176836000Y-102351172D01*
X176835999Y-102351155D01*
X176829598Y-102291627D01*
X176829596Y-102291620D01*
X176779354Y-102156913D01*
X176779350Y-102156906D01*
X176693190Y-102041812D01*
X176693187Y-102041809D01*
X176578093Y-101955649D01*
X176578086Y-101955645D01*
X176443379Y-101905403D01*
X176443372Y-101905401D01*
X176383844Y-101899000D01*
X175736000Y-101899000D01*
X175736000Y-102815988D01*
X175678993Y-102783075D01*
X175551826Y-102749000D01*
X175420174Y-102749000D01*
X175293007Y-102783075D01*
X175236000Y-102815988D01*
X175236000Y-101899000D01*
X174588155Y-101899000D01*
X174528627Y-101905401D01*
X174528620Y-101905403D01*
X174393913Y-101955645D01*
X174393906Y-101955649D01*
X174278812Y-102041809D01*
X174278809Y-102041812D01*
X174192649Y-102156906D01*
X174192646Y-102156912D01*
X174143577Y-102288471D01*
X174101705Y-102344404D01*
X174036241Y-102368821D01*
X173967968Y-102353969D01*
X173939714Y-102332818D01*
X173825786Y-102218890D01*
X173653820Y-102093951D01*
X173464414Y-101997444D01*
X173464413Y-101997443D01*
X173464412Y-101997443D01*
X173262243Y-101931754D01*
X173262241Y-101931753D01*
X173262240Y-101931753D01*
X173100957Y-101906208D01*
X173052287Y-101898500D01*
X172839713Y-101898500D01*
X172791042Y-101906208D01*
X172629760Y-101931753D01*
X172427585Y-101997444D01*
X172238179Y-102093951D01*
X172066213Y-102218890D01*
X171915890Y-102369213D01*
X171790949Y-102541182D01*
X171786484Y-102549946D01*
X171738509Y-102600742D01*
X171670688Y-102617536D01*
X171604553Y-102594998D01*
X171565516Y-102549946D01*
X171561050Y-102541182D01*
X171436109Y-102369213D01*
X171285786Y-102218890D01*
X171113820Y-102093951D01*
X170924414Y-101997444D01*
X170924413Y-101997443D01*
X170924412Y-101997443D01*
X170722243Y-101931754D01*
X170722241Y-101931753D01*
X170722240Y-101931753D01*
X170560957Y-101906208D01*
X170512287Y-101898500D01*
X170299713Y-101898500D01*
X170251042Y-101906208D01*
X170089760Y-101931753D01*
X169887585Y-101997444D01*
X169698179Y-102093951D01*
X169526213Y-102218890D01*
X169375890Y-102369213D01*
X169250949Y-102541182D01*
X169246484Y-102549946D01*
X169198509Y-102600742D01*
X169130688Y-102617536D01*
X169064553Y-102594998D01*
X169025516Y-102549946D01*
X169021050Y-102541182D01*
X168896109Y-102369213D01*
X168745786Y-102218890D01*
X168573820Y-102093951D01*
X168384414Y-101997444D01*
X168384413Y-101997443D01*
X168384412Y-101997443D01*
X168182243Y-101931754D01*
X168182241Y-101931753D01*
X168182239Y-101931753D01*
X168064557Y-101913114D01*
X168001422Y-101883185D01*
X167964491Y-101823873D01*
X167965489Y-101754011D01*
X167996272Y-101702962D01*
X177442416Y-92256819D01*
X177503739Y-92223334D01*
X177530097Y-92220500D01*
X186087970Y-92220500D01*
X186155009Y-92240185D01*
G37*
%TD.AperFunction*%
%TA.AperFunction,Conductor*%
G36*
X176942539Y-54020185D02*
G01*
X176988294Y-54072989D01*
X176999500Y-54124500D01*
X176999500Y-60565891D01*
X177033608Y-60693187D01*
X177066554Y-60750250D01*
X177099500Y-60807314D01*
X177192686Y-60900500D01*
X177306814Y-60966392D01*
X177434108Y-61000500D01*
X180875500Y-61000500D01*
X180942539Y-61020185D01*
X180988294Y-61072989D01*
X180999500Y-61124500D01*
X180999500Y-67065891D01*
X181033608Y-67193187D01*
X181066554Y-67250250D01*
X181099500Y-67307314D01*
X181192686Y-67400500D01*
X181306814Y-67466392D01*
X181434108Y-67500500D01*
X183875500Y-67500500D01*
X183942539Y-67520185D01*
X183988294Y-67572989D01*
X183999500Y-67624500D01*
X183999500Y-74434108D01*
X183999500Y-74565892D01*
X184016554Y-74629539D01*
X184033608Y-74693187D01*
X184057324Y-74734263D01*
X184099500Y-74807314D01*
X184192686Y-74900500D01*
X184306814Y-74966392D01*
X184434108Y-75000500D01*
X187375500Y-75000500D01*
X187442539Y-75020185D01*
X187488294Y-75072989D01*
X187499500Y-75124500D01*
X187499500Y-77565891D01*
X187533608Y-77693187D01*
X187560094Y-77739061D01*
X187599500Y-77807314D01*
X187692686Y-77900500D01*
X187806814Y-77966392D01*
X187934108Y-78000500D01*
X190875500Y-78000500D01*
X190942539Y-78020185D01*
X190988294Y-78072989D01*
X190999500Y-78124500D01*
X190999500Y-79565891D01*
X191033608Y-79693187D01*
X191066554Y-79750250D01*
X191099500Y-79807314D01*
X191192686Y-79900500D01*
X191306814Y-79966392D01*
X191434108Y-80000500D01*
X221875500Y-80000500D01*
X221942539Y-80020185D01*
X221988294Y-80072989D01*
X221999500Y-80124500D01*
X221999500Y-83875500D01*
X221979815Y-83942539D01*
X221927011Y-83988294D01*
X221875500Y-83999500D01*
X218934108Y-83999500D01*
X218806812Y-84033608D01*
X218692686Y-84099500D01*
X218692683Y-84099502D01*
X218599502Y-84192683D01*
X218599500Y-84192686D01*
X218533608Y-84306812D01*
X218499500Y-84434108D01*
X218499500Y-87375500D01*
X218479815Y-87442539D01*
X218427011Y-87488294D01*
X218375500Y-87499500D01*
X214934108Y-87499500D01*
X214806812Y-87533608D01*
X214692686Y-87599500D01*
X214692683Y-87599502D01*
X214599502Y-87692683D01*
X214599500Y-87692686D01*
X214533608Y-87806812D01*
X214499500Y-87934108D01*
X214499500Y-90375500D01*
X214479815Y-90442539D01*
X214427011Y-90488294D01*
X214375500Y-90499500D01*
X211434108Y-90499500D01*
X211306812Y-90533608D01*
X211192686Y-90599500D01*
X211192683Y-90599502D01*
X211099502Y-90692683D01*
X211099500Y-90692686D01*
X211033608Y-90806812D01*
X210999500Y-90934108D01*
X210999500Y-93875500D01*
X210979815Y-93942539D01*
X210927011Y-93988294D01*
X210875500Y-93999500D01*
X207934108Y-93999500D01*
X207806812Y-94033608D01*
X207692686Y-94099500D01*
X207692683Y-94099502D01*
X207599502Y-94192683D01*
X207599500Y-94192686D01*
X207533608Y-94306812D01*
X207499500Y-94434108D01*
X207499500Y-100375500D01*
X207479815Y-100442539D01*
X207427011Y-100488294D01*
X207375500Y-100499500D01*
X206471402Y-100499500D01*
X206404363Y-100479815D01*
X206358608Y-100427011D01*
X206348664Y-100357853D01*
X206377689Y-100294297D01*
X206383721Y-100287819D01*
X206418587Y-100252952D01*
X206418592Y-100252947D01*
X206502564Y-100110959D01*
X206548587Y-99952548D01*
X206551500Y-99915534D01*
X206551500Y-98564466D01*
X206548587Y-98527452D01*
X206521468Y-98434110D01*
X206502565Y-98369045D01*
X206502564Y-98369042D01*
X206502564Y-98369041D01*
X206418592Y-98227053D01*
X206418590Y-98227051D01*
X206418587Y-98227047D01*
X206301952Y-98110412D01*
X206301944Y-98110406D01*
X206245004Y-98076732D01*
X206197321Y-98025663D01*
X206184817Y-97956921D01*
X206211462Y-97892332D01*
X206245004Y-97863268D01*
X206301947Y-97829592D01*
X206418592Y-97712947D01*
X206502564Y-97570959D01*
X206548587Y-97412548D01*
X206551500Y-97375534D01*
X206551500Y-96024466D01*
X206548587Y-95987452D01*
X206502564Y-95829041D01*
X206418592Y-95687053D01*
X206418590Y-95687051D01*
X206418587Y-95687047D01*
X206301952Y-95570412D01*
X206301944Y-95570406D01*
X206245004Y-95536732D01*
X206197321Y-95485663D01*
X206184817Y-95416921D01*
X206211462Y-95352332D01*
X206245004Y-95323268D01*
X206301947Y-95289592D01*
X206418592Y-95172947D01*
X206502564Y-95030959D01*
X206548587Y-94872548D01*
X206551500Y-94835534D01*
X206551500Y-93484466D01*
X206548587Y-93447452D01*
X206545796Y-93437846D01*
X206502565Y-93289045D01*
X206502564Y-93289042D01*
X206502564Y-93289041D01*
X206418592Y-93147053D01*
X206418590Y-93147051D01*
X206418587Y-93147047D01*
X206301952Y-93030412D01*
X206301944Y-93030406D01*
X206245004Y-92996732D01*
X206197321Y-92945663D01*
X206184817Y-92876921D01*
X206211462Y-92812332D01*
X206245004Y-92783268D01*
X206301947Y-92749592D01*
X206418592Y-92632947D01*
X206502564Y-92490959D01*
X206548587Y-92332548D01*
X206551500Y-92295534D01*
X206551500Y-90944466D01*
X206548587Y-90907452D01*
X206502564Y-90749041D01*
X206418592Y-90607053D01*
X206418590Y-90607051D01*
X206418587Y-90607047D01*
X206301952Y-90490412D01*
X206301944Y-90490406D01*
X206245004Y-90456732D01*
X206197321Y-90405663D01*
X206184817Y-90336921D01*
X206211462Y-90272332D01*
X206245004Y-90243268D01*
X206301947Y-90209592D01*
X206418592Y-90092947D01*
X206502564Y-89950959D01*
X206548587Y-89792548D01*
X206551500Y-89755534D01*
X206551500Y-88404466D01*
X206548587Y-88367452D01*
X206502564Y-88209041D01*
X206418592Y-88067053D01*
X206418590Y-88067051D01*
X206418587Y-88067047D01*
X206301952Y-87950412D01*
X206301948Y-87950409D01*
X206301947Y-87950408D01*
X206244511Y-87916440D01*
X206196829Y-87865371D01*
X206184326Y-87796630D01*
X206210972Y-87732040D01*
X206244514Y-87702976D01*
X206301637Y-87669193D01*
X206301643Y-87669189D01*
X206418189Y-87552643D01*
X206418196Y-87552634D01*
X206502102Y-87410756D01*
X206502103Y-87410753D01*
X206548088Y-87252473D01*
X206548089Y-87252467D01*
X206550999Y-87215488D01*
X206550999Y-85864530D01*
X206550998Y-85864508D01*
X206548089Y-85827533D01*
X206502102Y-85669242D01*
X206418196Y-85527365D01*
X206418189Y-85527356D01*
X206301643Y-85410810D01*
X206301634Y-85410803D01*
X206244513Y-85377022D01*
X206196829Y-85325953D01*
X206184326Y-85257211D01*
X206210972Y-85192622D01*
X206244514Y-85163558D01*
X206301941Y-85129596D01*
X206301942Y-85129594D01*
X206301947Y-85129592D01*
X206418592Y-85012947D01*
X206502564Y-84870959D01*
X206548587Y-84712548D01*
X206551500Y-84675534D01*
X206551500Y-83324466D01*
X206548587Y-83287452D01*
X206502564Y-83129041D01*
X206418592Y-82987053D01*
X206418590Y-82987051D01*
X206418587Y-82987047D01*
X206301952Y-82870412D01*
X206301943Y-82870405D01*
X206159957Y-82786435D01*
X206159954Y-82786434D01*
X206001552Y-82740413D01*
X206001546Y-82740412D01*
X205964541Y-82737500D01*
X205964534Y-82737500D01*
X203705466Y-82737500D01*
X203705458Y-82737500D01*
X203668453Y-82740412D01*
X203668447Y-82740413D01*
X203510045Y-82786434D01*
X203510042Y-82786435D01*
X203368056Y-82870405D01*
X203368046Y-82870413D01*
X203271854Y-82966604D01*
X203257061Y-82979239D01*
X203177536Y-83037018D01*
X203037021Y-83177533D01*
X202920213Y-83338305D01*
X202829994Y-83515367D01*
X202829993Y-83515370D01*
X202768587Y-83704362D01*
X202737500Y-83900639D01*
X202737500Y-84099360D01*
X202768587Y-84295637D01*
X202829993Y-84484629D01*
X202829994Y-84484632D01*
X202871399Y-84565892D01*
X202920213Y-84661694D01*
X203037019Y-84822464D01*
X203037021Y-84822466D01*
X203177539Y-84962984D01*
X203257060Y-85020758D01*
X203271851Y-85033390D01*
X203368053Y-85129592D01*
X203368054Y-85129593D01*
X203368056Y-85129594D01*
X203425486Y-85163558D01*
X203473170Y-85214627D01*
X203485673Y-85283369D01*
X203459028Y-85347958D01*
X203425487Y-85377021D01*
X203368370Y-85410800D01*
X203368357Y-85410810D01*
X203296360Y-85482806D01*
X203296360Y-85482807D01*
X203915905Y-86102352D01*
X203828429Y-86125792D01*
X203727070Y-86184311D01*
X203644311Y-86267070D01*
X203585792Y-86368429D01*
X203562352Y-86455905D01*
X202947730Y-85841282D01*
X202947729Y-85841283D01*
X202920643Y-85878564D01*
X202830457Y-86055562D01*
X202769075Y-86244476D01*
X202769075Y-86244479D01*
X202738000Y-86440678D01*
X202738000Y-86639321D01*
X202769075Y-86835520D01*
X202769075Y-86835523D01*
X202830457Y-87024437D01*
X202920641Y-87201432D01*
X202947730Y-87238715D01*
X202947731Y-87238716D01*
X203562352Y-86624094D01*
X203585792Y-86711571D01*
X203644311Y-86812930D01*
X203727070Y-86895689D01*
X203828429Y-86954208D01*
X203915904Y-86977647D01*
X203296360Y-87597191D01*
X203368360Y-87669192D01*
X203368364Y-87669195D01*
X203425486Y-87702977D01*
X203473169Y-87754046D01*
X203485673Y-87822788D01*
X203459028Y-87887377D01*
X203425487Y-87916440D01*
X203368058Y-87950403D01*
X203368046Y-87950413D01*
X203271854Y-88046604D01*
X203257061Y-88059239D01*
X203177536Y-88117018D01*
X203037021Y-88257533D01*
X202920213Y-88418305D01*
X202829994Y-88595367D01*
X202829993Y-88595370D01*
X202768587Y-88784362D01*
X202737500Y-88980639D01*
X202737500Y-89179360D01*
X202768587Y-89375637D01*
X202829993Y-89564629D01*
X202829994Y-89564632D01*
X202899063Y-89700185D01*
X202920213Y-89741694D01*
X203037019Y-89902464D01*
X203037021Y-89902466D01*
X203177539Y-90042984D01*
X203257060Y-90100758D01*
X203271851Y-90113390D01*
X203368053Y-90209592D01*
X203424996Y-90243268D01*
X203472679Y-90294338D01*
X203485182Y-90363079D01*
X203458536Y-90427669D01*
X203424996Y-90456732D01*
X203368053Y-90490408D01*
X203368046Y-90490413D01*
X203271854Y-90586604D01*
X203257061Y-90599239D01*
X203177536Y-90657018D01*
X203037021Y-90797533D01*
X202920213Y-90958305D01*
X202829994Y-91135367D01*
X202829993Y-91135370D01*
X202768587Y-91324362D01*
X202737500Y-91520639D01*
X202737500Y-91719360D01*
X202768587Y-91915637D01*
X202829993Y-92104629D01*
X202829994Y-92104632D01*
X202889033Y-92220500D01*
X202920213Y-92281694D01*
X203037019Y-92442464D01*
X203037021Y-92442466D01*
X203177539Y-92582984D01*
X203225020Y-92617480D01*
X203250008Y-92635635D01*
X203257060Y-92640758D01*
X203271851Y-92653390D01*
X203368053Y-92749592D01*
X203424996Y-92783268D01*
X203472679Y-92834338D01*
X203485182Y-92903079D01*
X203458536Y-92967669D01*
X203424996Y-92996732D01*
X203368053Y-93030408D01*
X203368046Y-93030413D01*
X203271854Y-93126604D01*
X203257061Y-93139239D01*
X203177536Y-93197018D01*
X203037021Y-93337533D01*
X202920213Y-93498305D01*
X202829994Y-93675367D01*
X202829993Y-93675370D01*
X202768587Y-93864362D01*
X202737500Y-94060639D01*
X202737500Y-94259360D01*
X202768587Y-94455637D01*
X202829993Y-94644629D01*
X202829994Y-94644632D01*
X202912630Y-94806812D01*
X202920213Y-94821694D01*
X203037019Y-94982464D01*
X203037021Y-94982466D01*
X203177539Y-95122984D01*
X203257060Y-95180758D01*
X203271851Y-95193390D01*
X203368053Y-95289592D01*
X203424996Y-95323268D01*
X203472679Y-95374338D01*
X203485182Y-95443079D01*
X203458536Y-95507669D01*
X203424996Y-95536732D01*
X203368053Y-95570408D01*
X203368046Y-95570413D01*
X203271854Y-95666604D01*
X203257061Y-95679239D01*
X203177536Y-95737018D01*
X203037021Y-95877533D01*
X202920213Y-96038305D01*
X202829994Y-96215367D01*
X202829993Y-96215370D01*
X202768587Y-96404362D01*
X202737500Y-96600639D01*
X202737500Y-96799360D01*
X202768587Y-96995637D01*
X202829993Y-97184629D01*
X202829994Y-97184632D01*
X202920213Y-97361694D01*
X203037019Y-97522464D01*
X203037021Y-97522466D01*
X203177539Y-97662984D01*
X203257060Y-97720758D01*
X203271851Y-97733390D01*
X203368053Y-97829592D01*
X203424996Y-97863268D01*
X203472679Y-97914338D01*
X203485182Y-97983079D01*
X203458536Y-98047669D01*
X203424996Y-98076732D01*
X203368053Y-98110408D01*
X203368046Y-98110413D01*
X203271854Y-98206604D01*
X203257061Y-98219239D01*
X203177536Y-98277018D01*
X203037021Y-98417533D01*
X202920213Y-98578305D01*
X202829994Y-98755367D01*
X202829993Y-98755370D01*
X202768587Y-98944362D01*
X202737500Y-99140639D01*
X202737500Y-99339360D01*
X202768587Y-99535637D01*
X202829993Y-99724629D01*
X202829994Y-99724632D01*
X202920213Y-99901694D01*
X203037019Y-100062464D01*
X203037021Y-100062466D01*
X203177539Y-100202984D01*
X203257060Y-100260758D01*
X203271851Y-100273390D01*
X203368053Y-100369592D01*
X203510041Y-100453564D01*
X203551816Y-100465701D01*
X203668447Y-100499586D01*
X203668450Y-100499586D01*
X203668452Y-100499587D01*
X203705466Y-100502500D01*
X203900639Y-100502500D01*
X204099361Y-100502500D01*
X204994530Y-100502500D01*
X205061569Y-100522185D01*
X205107324Y-100574989D01*
X205117268Y-100644147D01*
X205101917Y-100688501D01*
X205099501Y-100692684D01*
X205099500Y-100692686D01*
X205074315Y-100736306D01*
X205033608Y-100806812D01*
X204999500Y-100934108D01*
X204999500Y-103875500D01*
X204979815Y-103942539D01*
X204927011Y-103988294D01*
X204875500Y-103999500D01*
X201434108Y-103999500D01*
X201306812Y-104033608D01*
X201192686Y-104099500D01*
X201192683Y-104099502D01*
X201099502Y-104192683D01*
X201099500Y-104192686D01*
X201033608Y-104306812D01*
X200999500Y-104434108D01*
X200999500Y-108565891D01*
X201033608Y-108693187D01*
X201066554Y-108750250D01*
X201099500Y-108807314D01*
X201192686Y-108900500D01*
X201306814Y-108966392D01*
X201434108Y-109000500D01*
X204375500Y-109000500D01*
X204442539Y-109020185D01*
X204488294Y-109072989D01*
X204499500Y-109124500D01*
X204499500Y-118565891D01*
X204533608Y-118693187D01*
X204566554Y-118750250D01*
X204599500Y-118807314D01*
X204692686Y-118900500D01*
X204806814Y-118966392D01*
X204934108Y-119000500D01*
X207375500Y-119000500D01*
X207442539Y-119020185D01*
X207488294Y-119072989D01*
X207499500Y-119124500D01*
X207499500Y-125065891D01*
X207533608Y-125193187D01*
X207566554Y-125250250D01*
X207599500Y-125307314D01*
X207692686Y-125400500D01*
X207806814Y-125466392D01*
X207916529Y-125495789D01*
X207976189Y-125532154D01*
X208004209Y-125583469D01*
X208033608Y-125693186D01*
X208099500Y-125807314D01*
X208192686Y-125900500D01*
X208306814Y-125966392D01*
X208434108Y-126000500D01*
X211375500Y-126000500D01*
X211442539Y-126020185D01*
X211488294Y-126072989D01*
X211499500Y-126124500D01*
X211499500Y-134875500D01*
X211479815Y-134942539D01*
X211427011Y-134988294D01*
X211375500Y-134999500D01*
X198624500Y-134999500D01*
X198557461Y-134979815D01*
X198511706Y-134927011D01*
X198500500Y-134875500D01*
X198500500Y-131934110D01*
X198500500Y-131934108D01*
X198466392Y-131806814D01*
X198400500Y-131692686D01*
X198307314Y-131599500D01*
X198250250Y-131566554D01*
X198193187Y-131533608D01*
X198129539Y-131516554D01*
X198065892Y-131499500D01*
X198065891Y-131499500D01*
X195124500Y-131499500D01*
X195057461Y-131479815D01*
X195011706Y-131427011D01*
X195000500Y-131375500D01*
X195000500Y-128434110D01*
X195000500Y-128434108D01*
X194966392Y-128306814D01*
X194900500Y-128192686D01*
X194807314Y-128099500D01*
X194750250Y-128066554D01*
X194693187Y-128033608D01*
X194629539Y-128016554D01*
X194565892Y-127999500D01*
X194565891Y-127999500D01*
X188624500Y-127999500D01*
X188557461Y-127979815D01*
X188511706Y-127927011D01*
X188500500Y-127875500D01*
X188500500Y-124934110D01*
X188500500Y-124934108D01*
X188466392Y-124806814D01*
X188400500Y-124692686D01*
X188307314Y-124599500D01*
X188249103Y-124565892D01*
X188193187Y-124533608D01*
X188129539Y-124516554D01*
X188065892Y-124499500D01*
X188065891Y-124499500D01*
X185124500Y-124499500D01*
X185057461Y-124479815D01*
X185011706Y-124427011D01*
X185000500Y-124375500D01*
X185000500Y-121934110D01*
X185000500Y-121934108D01*
X184966392Y-121806814D01*
X184900500Y-121692686D01*
X184807314Y-121599500D01*
X184750250Y-121566554D01*
X184693187Y-121533608D01*
X184629539Y-121516554D01*
X184565892Y-121499500D01*
X184565891Y-121499500D01*
X181124500Y-121499500D01*
X181057461Y-121479815D01*
X181011706Y-121427011D01*
X181000500Y-121375500D01*
X181000500Y-118434110D01*
X181000500Y-118434108D01*
X180966392Y-118306814D01*
X180900500Y-118192686D01*
X180807314Y-118099500D01*
X180750250Y-118066554D01*
X180693187Y-118033608D01*
X180629539Y-118016554D01*
X180565892Y-117999500D01*
X180565891Y-117999500D01*
X178124500Y-117999500D01*
X178057461Y-117979815D01*
X178011706Y-117927011D01*
X178000500Y-117875500D01*
X178000500Y-115434110D01*
X178000500Y-115434108D01*
X177966392Y-115306814D01*
X177965316Y-115304951D01*
X177957563Y-115291521D01*
X177900500Y-115192686D01*
X177807314Y-115099500D01*
X177750250Y-115066554D01*
X177693187Y-115033608D01*
X177576890Y-115002447D01*
X177565892Y-114999500D01*
X170565892Y-114999500D01*
X170434108Y-114999500D01*
X170306812Y-115033608D01*
X170192686Y-115099500D01*
X170192683Y-115099502D01*
X170099502Y-115192683D01*
X170099500Y-115192686D01*
X170033608Y-115306812D01*
X169999500Y-115434108D01*
X169999500Y-117875500D01*
X169979815Y-117942539D01*
X169927011Y-117988294D01*
X169875500Y-117999500D01*
X167434108Y-117999500D01*
X167306812Y-118033608D01*
X167192686Y-118099500D01*
X167192683Y-118099502D01*
X167099502Y-118192683D01*
X167099500Y-118192686D01*
X167033608Y-118306812D01*
X166999500Y-118434108D01*
X166999500Y-121375500D01*
X166979815Y-121442539D01*
X166927011Y-121488294D01*
X166875500Y-121499500D01*
X166434108Y-121499500D01*
X166306812Y-121533608D01*
X166192686Y-121599500D01*
X166192683Y-121599502D01*
X166099502Y-121692683D01*
X166099500Y-121692686D01*
X166033608Y-121806812D01*
X165999500Y-121934108D01*
X165999500Y-123875500D01*
X165979815Y-123942539D01*
X165927011Y-123988294D01*
X165875500Y-123999500D01*
X163934108Y-123999500D01*
X163806812Y-124033608D01*
X163692686Y-124099500D01*
X163692683Y-124099502D01*
X163599502Y-124192683D01*
X163599500Y-124192686D01*
X163533608Y-124306812D01*
X163499500Y-124434108D01*
X163499500Y-124875500D01*
X163479815Y-124942539D01*
X163427011Y-124988294D01*
X163375500Y-124999500D01*
X160434108Y-124999500D01*
X160306812Y-125033608D01*
X160192686Y-125099500D01*
X160192683Y-125099502D01*
X160099502Y-125192683D01*
X160099500Y-125192686D01*
X160033608Y-125306812D01*
X159999500Y-125434108D01*
X159999500Y-127875500D01*
X159979815Y-127942539D01*
X159927011Y-127988294D01*
X159875500Y-127999500D01*
X156934108Y-127999500D01*
X156806812Y-128033608D01*
X156692686Y-128099500D01*
X156692683Y-128099502D01*
X156599502Y-128192683D01*
X156599500Y-128192686D01*
X156533608Y-128306812D01*
X156499500Y-128434108D01*
X156499500Y-131875500D01*
X156479815Y-131942539D01*
X156427011Y-131988294D01*
X156375500Y-131999500D01*
X153934108Y-131999500D01*
X153806812Y-132033608D01*
X153692686Y-132099500D01*
X153692683Y-132099502D01*
X153599502Y-132192683D01*
X153599500Y-132192686D01*
X153533608Y-132306812D01*
X153499500Y-132434108D01*
X153499500Y-135375500D01*
X153479815Y-135442539D01*
X153427011Y-135488294D01*
X153375500Y-135499500D01*
X140624500Y-135499500D01*
X140557461Y-135479815D01*
X140511706Y-135427011D01*
X140500500Y-135375500D01*
X140500500Y-122624500D01*
X140520185Y-122557461D01*
X140572989Y-122511706D01*
X140624500Y-122500500D01*
X144065890Y-122500500D01*
X144065892Y-122500500D01*
X144193186Y-122466392D01*
X144307314Y-122400500D01*
X144400500Y-122307314D01*
X144466392Y-122193186D01*
X144500500Y-122065892D01*
X144500500Y-114493389D01*
X150629500Y-114493389D01*
X150629500Y-114666611D01*
X150656598Y-114837701D01*
X150710127Y-115002445D01*
X150788768Y-115156788D01*
X150890586Y-115296928D01*
X151013072Y-115419414D01*
X151153212Y-115521232D01*
X151307555Y-115599873D01*
X151472299Y-115653402D01*
X151643389Y-115680500D01*
X151643390Y-115680500D01*
X151816610Y-115680500D01*
X151816611Y-115680500D01*
X151987701Y-115653402D01*
X152152445Y-115599873D01*
X152306788Y-115521232D01*
X152446928Y-115419414D01*
X152569414Y-115296928D01*
X152671232Y-115156788D01*
X152749873Y-115002445D01*
X152803402Y-114837701D01*
X152830500Y-114666611D01*
X152830500Y-114493389D01*
X152820854Y-114432486D01*
X154559500Y-114432486D01*
X154559500Y-114727513D01*
X154586980Y-114936239D01*
X154598007Y-115019993D01*
X154672212Y-115296930D01*
X154674361Y-115304951D01*
X154674364Y-115304961D01*
X154787254Y-115577500D01*
X154787258Y-115577510D01*
X154934761Y-115832993D01*
X155114352Y-116067040D01*
X155114358Y-116067047D01*
X155322952Y-116275641D01*
X155322959Y-116275647D01*
X155557006Y-116455238D01*
X155812489Y-116602741D01*
X155812490Y-116602741D01*
X155812493Y-116602743D01*
X156085048Y-116715639D01*
X156370007Y-116791993D01*
X156662494Y-116830500D01*
X156662501Y-116830500D01*
X156957499Y-116830500D01*
X156957506Y-116830500D01*
X157249993Y-116791993D01*
X157534952Y-116715639D01*
X157807507Y-116602743D01*
X158062994Y-116455238D01*
X158297042Y-116275646D01*
X158505646Y-116067042D01*
X158685238Y-115832994D01*
X158832743Y-115577507D01*
X158945639Y-115304952D01*
X159021993Y-115019993D01*
X159060500Y-114727506D01*
X159060500Y-114493389D01*
X160789500Y-114493389D01*
X160789500Y-114666611D01*
X160816598Y-114837701D01*
X160870127Y-115002445D01*
X160948768Y-115156788D01*
X161050586Y-115296928D01*
X161173072Y-115419414D01*
X161313212Y-115521232D01*
X161467555Y-115599873D01*
X161632299Y-115653402D01*
X161803389Y-115680500D01*
X161803390Y-115680500D01*
X161976610Y-115680500D01*
X161976611Y-115680500D01*
X162147701Y-115653402D01*
X162312445Y-115599873D01*
X162466788Y-115521232D01*
X162606928Y-115419414D01*
X162729414Y-115296928D01*
X162831232Y-115156788D01*
X162909873Y-115002445D01*
X162963402Y-114837701D01*
X162990500Y-114666611D01*
X162990500Y-114493389D01*
X162963402Y-114322299D01*
X162909873Y-114157555D01*
X162831232Y-114003212D01*
X162729414Y-113863072D01*
X162606928Y-113740586D01*
X162466788Y-113638768D01*
X162312445Y-113560127D01*
X162147701Y-113506598D01*
X162147699Y-113506597D01*
X162147698Y-113506597D01*
X162016271Y-113485781D01*
X161976611Y-113479500D01*
X161803389Y-113479500D01*
X161763728Y-113485781D01*
X161632302Y-113506597D01*
X161467552Y-113560128D01*
X161313211Y-113638768D01*
X161257115Y-113679525D01*
X161173072Y-113740586D01*
X161173070Y-113740588D01*
X161173069Y-113740588D01*
X161050588Y-113863069D01*
X161050588Y-113863070D01*
X161050586Y-113863072D01*
X161014908Y-113912179D01*
X160948768Y-114003211D01*
X160870128Y-114157552D01*
X160816597Y-114322302D01*
X160789500Y-114493389D01*
X159060500Y-114493389D01*
X159060500Y-114432494D01*
X159021993Y-114140007D01*
X158945639Y-113855048D01*
X158832743Y-113582493D01*
X158782604Y-113495650D01*
X158685238Y-113327006D01*
X158505647Y-113092959D01*
X158505641Y-113092952D01*
X158297047Y-112884358D01*
X158297040Y-112884352D01*
X158062993Y-112704761D01*
X157807510Y-112557258D01*
X157807500Y-112557254D01*
X157534961Y-112444364D01*
X157534954Y-112444362D01*
X157534952Y-112444361D01*
X157249993Y-112368007D01*
X157201113Y-112361571D01*
X156957513Y-112329500D01*
X156957506Y-112329500D01*
X156662494Y-112329500D01*
X156662486Y-112329500D01*
X156384085Y-112366153D01*
X156370007Y-112368007D01*
X156248741Y-112400500D01*
X156085048Y-112444361D01*
X156085038Y-112444364D01*
X155812499Y-112557254D01*
X155812489Y-112557258D01*
X155557006Y-112704761D01*
X155322959Y-112884352D01*
X155322952Y-112884358D01*
X155114358Y-113092952D01*
X155114352Y-113092959D01*
X154934761Y-113327006D01*
X154787258Y-113582489D01*
X154787254Y-113582499D01*
X154674364Y-113855038D01*
X154674361Y-113855048D01*
X154598008Y-114140004D01*
X154598006Y-114140015D01*
X154559500Y-114432486D01*
X152820854Y-114432486D01*
X152803402Y-114322299D01*
X152749873Y-114157555D01*
X152671232Y-114003212D01*
X152569414Y-113863072D01*
X152516882Y-113810540D01*
X152483397Y-113749217D01*
X152488381Y-113679525D01*
X152530253Y-113623592D01*
X152595717Y-113599175D01*
X152623961Y-113600386D01*
X152874072Y-113640000D01*
X153125928Y-113640000D01*
X153374669Y-113600602D01*
X153614184Y-113522780D01*
X153838575Y-113408446D01*
X153838581Y-113408442D01*
X153940697Y-113334250D01*
X153940698Y-113334250D01*
X153324025Y-112717578D01*
X153355258Y-112704641D01*
X153478097Y-112622563D01*
X153582563Y-112518097D01*
X153664641Y-112395258D01*
X153677578Y-112364025D01*
X154294250Y-112980698D01*
X154294250Y-112980697D01*
X154368442Y-112878581D01*
X154368446Y-112878575D01*
X154482780Y-112654184D01*
X154560602Y-112414669D01*
X154600000Y-112165928D01*
X154600000Y-111914071D01*
X154560602Y-111665330D01*
X154482780Y-111425815D01*
X154368442Y-111201416D01*
X154294250Y-111099301D01*
X154294250Y-111099300D01*
X153677577Y-111715973D01*
X153664641Y-111684742D01*
X153582563Y-111561903D01*
X153478097Y-111457437D01*
X153355258Y-111375359D01*
X153324024Y-111362421D01*
X153940698Y-110745748D01*
X153838583Y-110671557D01*
X153614184Y-110557219D01*
X153374669Y-110479397D01*
X153125928Y-110440000D01*
X152874072Y-110440000D01*
X152625330Y-110479397D01*
X152385815Y-110557219D01*
X152161413Y-110671559D01*
X152059301Y-110745747D01*
X152059300Y-110745748D01*
X152675974Y-111362421D01*
X152644742Y-111375359D01*
X152521903Y-111457437D01*
X152417437Y-111561903D01*
X152335359Y-111684742D01*
X152322421Y-111715974D01*
X151705748Y-111099300D01*
X151705747Y-111099301D01*
X151631559Y-111201413D01*
X151517219Y-111425815D01*
X151439397Y-111665330D01*
X151400000Y-111914071D01*
X151400000Y-112165928D01*
X151439397Y-112414669D01*
X151517219Y-112654184D01*
X151631557Y-112878583D01*
X151705748Y-112980697D01*
X151705748Y-112980698D01*
X152322421Y-112364024D01*
X152335359Y-112395258D01*
X152417437Y-112518097D01*
X152521903Y-112622563D01*
X152644742Y-112704641D01*
X152675974Y-112717577D01*
X152059300Y-113334250D01*
X152061598Y-113363449D01*
X152047233Y-113431827D01*
X151998181Y-113481583D01*
X151930016Y-113496921D01*
X151918583Y-113495650D01*
X151816611Y-113479500D01*
X151643389Y-113479500D01*
X151603728Y-113485781D01*
X151472302Y-113506597D01*
X151307552Y-113560128D01*
X151153211Y-113638768D01*
X151097115Y-113679525D01*
X151013072Y-113740586D01*
X151013070Y-113740588D01*
X151013069Y-113740588D01*
X150890588Y-113863069D01*
X150890588Y-113863070D01*
X150890586Y-113863072D01*
X150854908Y-113912179D01*
X150788768Y-114003211D01*
X150710128Y-114157552D01*
X150656597Y-114322302D01*
X150629500Y-114493389D01*
X144500500Y-114493389D01*
X144500500Y-112624500D01*
X144520185Y-112557461D01*
X144572989Y-112511706D01*
X144624500Y-112500500D01*
X147065890Y-112500500D01*
X147065892Y-112500500D01*
X147193186Y-112466392D01*
X147307314Y-112400500D01*
X147400500Y-112307314D01*
X147466392Y-112193186D01*
X147500500Y-112065892D01*
X147500500Y-102486149D01*
X158099500Y-102486149D01*
X158099500Y-102741850D01*
X158124635Y-102932757D01*
X158132874Y-102995340D01*
X158183204Y-103183174D01*
X158199050Y-103242312D01*
X158199053Y-103242322D01*
X158296894Y-103478531D01*
X158296899Y-103478542D01*
X158424734Y-103699957D01*
X158424745Y-103699973D01*
X158580388Y-103902811D01*
X158580394Y-103902818D01*
X158761181Y-104083605D01*
X158761187Y-104083610D01*
X158964035Y-104239261D01*
X158964042Y-104239265D01*
X159185457Y-104367100D01*
X159185462Y-104367102D01*
X159185465Y-104367104D01*
X159421687Y-104464950D01*
X159668660Y-104531126D01*
X159922157Y-104564500D01*
X159922164Y-104564500D01*
X161077836Y-104564500D01*
X161077843Y-104564500D01*
X161331340Y-104531126D01*
X161578313Y-104464950D01*
X161814535Y-104367104D01*
X162035965Y-104239261D01*
X162238813Y-104083610D01*
X162419610Y-103902813D01*
X162575261Y-103699965D01*
X162703104Y-103478535D01*
X162800950Y-103242313D01*
X162867126Y-102995340D01*
X162900500Y-102741843D01*
X162900500Y-102486157D01*
X162867126Y-102232660D01*
X162800950Y-101985687D01*
X162800947Y-101985679D01*
X162800946Y-101985676D01*
X162703105Y-101749468D01*
X162703100Y-101749457D01*
X162575265Y-101528042D01*
X162575261Y-101528035D01*
X162419610Y-101325187D01*
X162419605Y-101325181D01*
X162238818Y-101144394D01*
X162238811Y-101144388D01*
X162035973Y-100988745D01*
X162035971Y-100988743D01*
X162035965Y-100988739D01*
X162035960Y-100988736D01*
X162035957Y-100988734D01*
X161814542Y-100860899D01*
X161814531Y-100860894D01*
X161578322Y-100763053D01*
X161578315Y-100763051D01*
X161578313Y-100763050D01*
X161331340Y-100696874D01*
X161267742Y-100688501D01*
X161077850Y-100663500D01*
X161077843Y-100663500D01*
X159922157Y-100663500D01*
X159922149Y-100663500D01*
X159696826Y-100693165D01*
X159668660Y-100696874D01*
X159421687Y-100763050D01*
X159421677Y-100763053D01*
X159185468Y-100860894D01*
X159185457Y-100860899D01*
X158964042Y-100988734D01*
X158964026Y-100988745D01*
X158761188Y-101144388D01*
X158761181Y-101144394D01*
X158580394Y-101325181D01*
X158580388Y-101325188D01*
X158424745Y-101528026D01*
X158424734Y-101528042D01*
X158296899Y-101749457D01*
X158296894Y-101749468D01*
X158199054Y-101985676D01*
X158199050Y-101985687D01*
X158132874Y-102232661D01*
X158099500Y-102486149D01*
X147500500Y-102486149D01*
X147500500Y-101434108D01*
X147466392Y-101306814D01*
X147400500Y-101192686D01*
X147307314Y-101099500D01*
X147249103Y-101065892D01*
X147193187Y-101033608D01*
X147129539Y-101016554D01*
X147065892Y-100999500D01*
X147065891Y-100999500D01*
X144124500Y-100999500D01*
X144057461Y-100979815D01*
X144011706Y-100927011D01*
X144000500Y-100875500D01*
X144000500Y-98434110D01*
X144000500Y-98434108D01*
X143966392Y-98306814D01*
X143900500Y-98192686D01*
X143807314Y-98099500D01*
X143750250Y-98066554D01*
X143693187Y-98033608D01*
X143629539Y-98016554D01*
X143565892Y-97999500D01*
X143565891Y-97999500D01*
X140624500Y-97999500D01*
X140557461Y-97979815D01*
X140511706Y-97927011D01*
X140500500Y-97875500D01*
X140500500Y-94934110D01*
X140500500Y-94934108D01*
X140466392Y-94806814D01*
X140400500Y-94692686D01*
X140307314Y-94599500D01*
X140249103Y-94565892D01*
X140193187Y-94533608D01*
X140129539Y-94516554D01*
X140065892Y-94499500D01*
X140065891Y-94499500D01*
X137124500Y-94499500D01*
X137057461Y-94479815D01*
X137011706Y-94427011D01*
X137000500Y-94375500D01*
X137000500Y-90934110D01*
X137000500Y-90934108D01*
X136966392Y-90806814D01*
X136900500Y-90692686D01*
X136807314Y-90599500D01*
X136750250Y-90566554D01*
X136693187Y-90533608D01*
X136684285Y-90531223D01*
X136565892Y-90499500D01*
X136565891Y-90499500D01*
X133624500Y-90499500D01*
X133557461Y-90479815D01*
X133511706Y-90427011D01*
X133508743Y-90413389D01*
X141739500Y-90413389D01*
X141739500Y-90586611D01*
X141741542Y-90599502D01*
X141765226Y-90749042D01*
X141766598Y-90757701D01*
X141820127Y-90922445D01*
X141898768Y-91076788D01*
X142000586Y-91216928D01*
X142123072Y-91339414D01*
X142263212Y-91441232D01*
X142417555Y-91519873D01*
X142582299Y-91573402D01*
X142753389Y-91600500D01*
X142753390Y-91600500D01*
X142926610Y-91600500D01*
X142926611Y-91600500D01*
X143097701Y-91573402D01*
X143262445Y-91519873D01*
X143416788Y-91441232D01*
X143556928Y-91339414D01*
X143679414Y-91216928D01*
X143781232Y-91076788D01*
X143859873Y-90922445D01*
X143913402Y-90757701D01*
X143940500Y-90586611D01*
X143940500Y-90413389D01*
X143930854Y-90352486D01*
X145669500Y-90352486D01*
X145669500Y-90647513D01*
X145689252Y-90797536D01*
X145708007Y-90939993D01*
X145782212Y-91216930D01*
X145784361Y-91224951D01*
X145784364Y-91224961D01*
X145897254Y-91497500D01*
X145897258Y-91497510D01*
X146044761Y-91752993D01*
X146224352Y-91987040D01*
X146224358Y-91987047D01*
X146432952Y-92195641D01*
X146432959Y-92195647D01*
X146667006Y-92375238D01*
X146922489Y-92522741D01*
X146922490Y-92522741D01*
X146922493Y-92522743D01*
X147195048Y-92635639D01*
X147480007Y-92711993D01*
X147758415Y-92748646D01*
X147765589Y-92749591D01*
X147772494Y-92750500D01*
X147772501Y-92750500D01*
X148067499Y-92750500D01*
X148067506Y-92750500D01*
X148359993Y-92711993D01*
X148644952Y-92635639D01*
X148917507Y-92522743D01*
X149172994Y-92375238D01*
X149407042Y-92195646D01*
X149615646Y-91987042D01*
X149795238Y-91752994D01*
X149942743Y-91497507D01*
X150055639Y-91224952D01*
X150131993Y-90939993D01*
X150170500Y-90647506D01*
X150170500Y-90352494D01*
X150131993Y-90060007D01*
X150055639Y-89775048D01*
X149942743Y-89502493D01*
X149910041Y-89445852D01*
X149795238Y-89247006D01*
X149615647Y-89012959D01*
X149615641Y-89012952D01*
X149407047Y-88804358D01*
X149407040Y-88804352D01*
X149172993Y-88624761D01*
X148917510Y-88477258D01*
X148917500Y-88477254D01*
X148644961Y-88364364D01*
X148644954Y-88364362D01*
X148644952Y-88364361D01*
X148359993Y-88288007D01*
X148311113Y-88281571D01*
X148067513Y-88249500D01*
X148067506Y-88249500D01*
X147772494Y-88249500D01*
X147772486Y-88249500D01*
X147494085Y-88286153D01*
X147480007Y-88288007D01*
X147305861Y-88334669D01*
X147195048Y-88364361D01*
X147195038Y-88364364D01*
X146922499Y-88477254D01*
X146922489Y-88477258D01*
X146667006Y-88624761D01*
X146432959Y-88804352D01*
X146432952Y-88804358D01*
X146224358Y-89012952D01*
X146224352Y-89012959D01*
X146044761Y-89247006D01*
X145897258Y-89502489D01*
X145897254Y-89502499D01*
X145784364Y-89775038D01*
X145784361Y-89775048D01*
X145737228Y-89950954D01*
X145708008Y-90060004D01*
X145708006Y-90060015D01*
X145669500Y-90352486D01*
X143930854Y-90352486D01*
X143913402Y-90242299D01*
X143859873Y-90077555D01*
X143781232Y-89923212D01*
X143679414Y-89783072D01*
X143626882Y-89730540D01*
X143593397Y-89669217D01*
X143598381Y-89599525D01*
X143640253Y-89543592D01*
X143705717Y-89519175D01*
X143733961Y-89520386D01*
X143984072Y-89560000D01*
X144235928Y-89560000D01*
X144484669Y-89520602D01*
X144724184Y-89442780D01*
X144948575Y-89328446D01*
X144948581Y-89328442D01*
X145050697Y-89254250D01*
X145050698Y-89254250D01*
X144434025Y-88637578D01*
X144465258Y-88624641D01*
X144588097Y-88542563D01*
X144692563Y-88438097D01*
X144774641Y-88315258D01*
X144787578Y-88284025D01*
X145404250Y-88900698D01*
X145404250Y-88900697D01*
X145478442Y-88798581D01*
X145478446Y-88798575D01*
X145592780Y-88574184D01*
X145670602Y-88334669D01*
X145710000Y-88085928D01*
X145710000Y-87834071D01*
X145670602Y-87585330D01*
X145592780Y-87345815D01*
X145478442Y-87121416D01*
X145404250Y-87019301D01*
X145404250Y-87019300D01*
X144787577Y-87635973D01*
X144774641Y-87604742D01*
X144692563Y-87481903D01*
X144588097Y-87377437D01*
X144465258Y-87295359D01*
X144434024Y-87282421D01*
X145050698Y-86665748D01*
X144948583Y-86591557D01*
X144724184Y-86477219D01*
X144484669Y-86399397D01*
X144235928Y-86360000D01*
X143984072Y-86360000D01*
X143735330Y-86399397D01*
X143495815Y-86477219D01*
X143271413Y-86591559D01*
X143169301Y-86665747D01*
X143169300Y-86665748D01*
X143785974Y-87282421D01*
X143754742Y-87295359D01*
X143631903Y-87377437D01*
X143527437Y-87481903D01*
X143445359Y-87604742D01*
X143432421Y-87635974D01*
X142815748Y-87019300D01*
X142815747Y-87019301D01*
X142741559Y-87121413D01*
X142627219Y-87345815D01*
X142549397Y-87585330D01*
X142510000Y-87834071D01*
X142510000Y-88085928D01*
X142549397Y-88334669D01*
X142627219Y-88574184D01*
X142741557Y-88798583D01*
X142815748Y-88900697D01*
X142815748Y-88900698D01*
X143432421Y-88284024D01*
X143445359Y-88315258D01*
X143527437Y-88438097D01*
X143631903Y-88542563D01*
X143754742Y-88624641D01*
X143785974Y-88637577D01*
X143169300Y-89254250D01*
X143171598Y-89283449D01*
X143157233Y-89351827D01*
X143108181Y-89401583D01*
X143040016Y-89416921D01*
X143028583Y-89415650D01*
X142926611Y-89399500D01*
X142753389Y-89399500D01*
X142713728Y-89405781D01*
X142582302Y-89426597D01*
X142417552Y-89480128D01*
X142263211Y-89558768D01*
X142207115Y-89599525D01*
X142123072Y-89660586D01*
X142123070Y-89660588D01*
X142123069Y-89660588D01*
X142000588Y-89783069D01*
X142000588Y-89783070D01*
X142000586Y-89783072D01*
X141983830Y-89806135D01*
X141898768Y-89923211D01*
X141820128Y-90077552D01*
X141766597Y-90242302D01*
X141745501Y-90375500D01*
X141739500Y-90413389D01*
X133508743Y-90413389D01*
X133500500Y-90375500D01*
X133500500Y-87434110D01*
X133500500Y-87434108D01*
X133466392Y-87306814D01*
X133400500Y-87192686D01*
X133307314Y-87099500D01*
X133250250Y-87066554D01*
X133193187Y-87033608D01*
X133129539Y-87016554D01*
X133065892Y-86999500D01*
X133065891Y-86999500D01*
X130624500Y-86999500D01*
X130615814Y-86996949D01*
X130606853Y-86998238D01*
X130582812Y-86987259D01*
X130557461Y-86979815D01*
X130551533Y-86972974D01*
X130543297Y-86969213D01*
X130529007Y-86946978D01*
X130511706Y-86927011D01*
X130509418Y-86916496D01*
X130505523Y-86910435D01*
X130500500Y-86875500D01*
X130500500Y-85294038D01*
X148859500Y-85294038D01*
X148859500Y-85545961D01*
X148898910Y-85794785D01*
X148976760Y-86034383D01*
X149023336Y-86125792D01*
X149083810Y-86244479D01*
X149091132Y-86258848D01*
X149239201Y-86462649D01*
X149239205Y-86462654D01*
X149417345Y-86640794D01*
X149417350Y-86640798D01*
X149581570Y-86760110D01*
X149621155Y-86788870D01*
X149712717Y-86835523D01*
X149845616Y-86903239D01*
X149845618Y-86903239D01*
X149845621Y-86903241D01*
X150085215Y-86981090D01*
X150334038Y-87020500D01*
X150334039Y-87020500D01*
X150585961Y-87020500D01*
X150585962Y-87020500D01*
X150834785Y-86981090D01*
X151016925Y-86921908D01*
X151086764Y-86919914D01*
X151142923Y-86952159D01*
X153425251Y-89234487D01*
X153458736Y-89295810D01*
X153453752Y-89365502D01*
X153411880Y-89421435D01*
X153346416Y-89445852D01*
X153299252Y-89440099D01*
X153257698Y-89426597D01*
X153126271Y-89405781D01*
X153086611Y-89399500D01*
X152913389Y-89399500D01*
X152873728Y-89405781D01*
X152742302Y-89426597D01*
X152577552Y-89480128D01*
X152423211Y-89558768D01*
X152367115Y-89599525D01*
X152283072Y-89660586D01*
X152283070Y-89660588D01*
X152283069Y-89660588D01*
X152160588Y-89783069D01*
X152160588Y-89783070D01*
X152160586Y-89783072D01*
X152143830Y-89806135D01*
X152058768Y-89923211D01*
X151980128Y-90077552D01*
X151926597Y-90242302D01*
X151905501Y-90375500D01*
X151899500Y-90413389D01*
X151899500Y-90586611D01*
X151901542Y-90599502D01*
X151925226Y-90749042D01*
X151926598Y-90757701D01*
X151980127Y-90922445D01*
X152058768Y-91076788D01*
X152160586Y-91216928D01*
X152283072Y-91339414D01*
X152423212Y-91441232D01*
X152577555Y-91519873D01*
X152742299Y-91573402D01*
X152913389Y-91600500D01*
X152913390Y-91600500D01*
X153086610Y-91600500D01*
X153086611Y-91600500D01*
X153257701Y-91573402D01*
X153422445Y-91519873D01*
X153576788Y-91441232D01*
X153716928Y-91339414D01*
X153839414Y-91216928D01*
X153941232Y-91076788D01*
X154019873Y-90922445D01*
X154073402Y-90757701D01*
X154100500Y-90586611D01*
X154100500Y-90413389D01*
X154073402Y-90242299D01*
X154019873Y-90077555D01*
X153941232Y-89923212D01*
X153903981Y-89871941D01*
X153880502Y-89806135D01*
X153896327Y-89738081D01*
X153946433Y-89689386D01*
X154014911Y-89675511D01*
X154036392Y-89679281D01*
X154040943Y-89680501D01*
X154040945Y-89680501D01*
X154206654Y-89680501D01*
X154206670Y-89680500D01*
X186087970Y-89680500D01*
X186155009Y-89700185D01*
X186200764Y-89752989D01*
X186209435Y-89786465D01*
X186210274Y-89786312D01*
X186211413Y-89792552D01*
X186257434Y-89950954D01*
X186257435Y-89950957D01*
X186341405Y-90092943D01*
X186341412Y-90092952D01*
X186458047Y-90209587D01*
X186458050Y-90209589D01*
X186458053Y-90209592D01*
X186514996Y-90243268D01*
X186562679Y-90294338D01*
X186575182Y-90363079D01*
X186548536Y-90427669D01*
X186514996Y-90456732D01*
X186458053Y-90490408D01*
X186458047Y-90490412D01*
X186341412Y-90607047D01*
X186341405Y-90607056D01*
X186257435Y-90749042D01*
X186257434Y-90749045D01*
X186211413Y-90907447D01*
X186210274Y-90913688D01*
X186208487Y-90913361D01*
X186186706Y-90970514D01*
X186130476Y-91011987D01*
X186087970Y-91019500D01*
X177150940Y-91019500D01*
X177110019Y-91030464D01*
X177110019Y-91030465D01*
X177072751Y-91040451D01*
X176998214Y-91060423D01*
X176998209Y-91060426D01*
X176861290Y-91139475D01*
X176861282Y-91139481D01*
X176749478Y-91251286D01*
X160032923Y-107967840D01*
X159971600Y-108001325D01*
X159906924Y-107998090D01*
X159724787Y-107938910D01*
X159558903Y-107912636D01*
X159475962Y-107899500D01*
X159224038Y-107899500D01*
X159099626Y-107919205D01*
X158975214Y-107938910D01*
X158735616Y-108016760D01*
X158511151Y-108131132D01*
X158307350Y-108279201D01*
X158307345Y-108279205D01*
X158129205Y-108457345D01*
X158129201Y-108457350D01*
X157981132Y-108661151D01*
X157866760Y-108885616D01*
X157788910Y-109125214D01*
X157749500Y-109374038D01*
X157749500Y-109625961D01*
X157788910Y-109874785D01*
X157866760Y-110114383D01*
X157981132Y-110338848D01*
X158129201Y-110542649D01*
X158129205Y-110542654D01*
X158307345Y-110720794D01*
X158307350Y-110720798D01*
X158455512Y-110828443D01*
X158511155Y-110868870D01*
X158654184Y-110941747D01*
X158735616Y-110983239D01*
X158735618Y-110983239D01*
X158735621Y-110983241D01*
X158975215Y-111061090D01*
X159224038Y-111100500D01*
X159224039Y-111100500D01*
X159475961Y-111100500D01*
X159475962Y-111100500D01*
X159724785Y-111061090D01*
X159964379Y-110983241D01*
X160188845Y-110868870D01*
X160392656Y-110720793D01*
X160570793Y-110542656D01*
X160718870Y-110338845D01*
X160833241Y-110114379D01*
X160911090Y-109874785D01*
X160950500Y-109625962D01*
X160950500Y-109374038D01*
X160911090Y-109125215D01*
X160911089Y-109125211D01*
X160911089Y-109125210D01*
X160851909Y-108943073D01*
X160849914Y-108873232D01*
X160882157Y-108817076D01*
X166319962Y-103379272D01*
X166381283Y-103345789D01*
X166450975Y-103350773D01*
X166506908Y-103392645D01*
X166530114Y-103447557D01*
X166548261Y-103562135D01*
X166548754Y-103565243D01*
X166592525Y-103699957D01*
X166614444Y-103767414D01*
X166710951Y-103956820D01*
X166835890Y-104128786D01*
X166986213Y-104279109D01*
X167158179Y-104404048D01*
X167158181Y-104404049D01*
X167158184Y-104404051D01*
X167347588Y-104500557D01*
X167549757Y-104566246D01*
X167759713Y-104599500D01*
X167759714Y-104599500D01*
X167972286Y-104599500D01*
X167972287Y-104599500D01*
X168182243Y-104566246D01*
X168224523Y-104552507D01*
X168294362Y-104550511D01*
X168350522Y-104582757D01*
X176212139Y-112444374D01*
X176212149Y-112444385D01*
X176216479Y-112448715D01*
X176216480Y-112448716D01*
X176328284Y-112560520D01*
X176393917Y-112598412D01*
X176415095Y-112610639D01*
X176415097Y-112610641D01*
X176453151Y-112632611D01*
X176465215Y-112639577D01*
X176617943Y-112680501D01*
X176617946Y-112680501D01*
X176783653Y-112680501D01*
X176783669Y-112680500D01*
X186214281Y-112680500D01*
X186281320Y-112700185D01*
X186324765Y-112748205D01*
X186344947Y-112787814D01*
X186344948Y-112787815D01*
X186469890Y-112959786D01*
X186620213Y-113110109D01*
X186792182Y-113235050D01*
X186800946Y-113239516D01*
X186851742Y-113287491D01*
X186868536Y-113355312D01*
X186845998Y-113421447D01*
X186800946Y-113460484D01*
X186792182Y-113464949D01*
X186620213Y-113589890D01*
X186469890Y-113740213D01*
X186344951Y-113912179D01*
X186248444Y-114101585D01*
X186182753Y-114303760D01*
X186152719Y-114493389D01*
X186149500Y-114513713D01*
X186149500Y-114726287D01*
X186182754Y-114936243D01*
X186235800Y-115099502D01*
X186248444Y-115138414D01*
X186344951Y-115327820D01*
X186469890Y-115499786D01*
X186620213Y-115650109D01*
X186792182Y-115775050D01*
X186800946Y-115779516D01*
X186851742Y-115827491D01*
X186868536Y-115895312D01*
X186845998Y-115961447D01*
X186800946Y-116000484D01*
X186792182Y-116004949D01*
X186620213Y-116129890D01*
X186469890Y-116280213D01*
X186344951Y-116452179D01*
X186248444Y-116641585D01*
X186182753Y-116843760D01*
X186149500Y-117053713D01*
X186149500Y-117266286D01*
X186182753Y-117476239D01*
X186248444Y-117678414D01*
X186344951Y-117867820D01*
X186469890Y-118039786D01*
X186620213Y-118190109D01*
X186792182Y-118315050D01*
X186800946Y-118319516D01*
X186851742Y-118367491D01*
X186868536Y-118435312D01*
X186845998Y-118501447D01*
X186800946Y-118540484D01*
X186792182Y-118544949D01*
X186620213Y-118669890D01*
X186469890Y-118820213D01*
X186344951Y-118992179D01*
X186248444Y-119181585D01*
X186182753Y-119383760D01*
X186149500Y-119593713D01*
X186149500Y-119806286D01*
X186182753Y-120016239D01*
X186248444Y-120218414D01*
X186344951Y-120407820D01*
X186469890Y-120579786D01*
X186620213Y-120730109D01*
X186792182Y-120855050D01*
X186800946Y-120859516D01*
X186851742Y-120907491D01*
X186868536Y-120975312D01*
X186845998Y-121041447D01*
X186800946Y-121080484D01*
X186792182Y-121084949D01*
X186620213Y-121209890D01*
X186469890Y-121360213D01*
X186344951Y-121532179D01*
X186248444Y-121721585D01*
X186182753Y-121923760D01*
X186149500Y-122133713D01*
X186149500Y-122346286D01*
X186182753Y-122556239D01*
X186248444Y-122758414D01*
X186344951Y-122947820D01*
X186469890Y-123119786D01*
X186620213Y-123270109D01*
X186792179Y-123395048D01*
X186792181Y-123395049D01*
X186792184Y-123395051D01*
X186981588Y-123491557D01*
X187183757Y-123557246D01*
X187393713Y-123590500D01*
X187393714Y-123590500D01*
X187606286Y-123590500D01*
X187606287Y-123590500D01*
X187816243Y-123557246D01*
X188018412Y-123491557D01*
X188207816Y-123395051D01*
X188229789Y-123379086D01*
X188379786Y-123270109D01*
X188379788Y-123270106D01*
X188379792Y-123270104D01*
X188530104Y-123119792D01*
X188530106Y-123119788D01*
X188530109Y-123119786D01*
X188655048Y-122947820D01*
X188655047Y-122947820D01*
X188655051Y-122947816D01*
X188751557Y-122758412D01*
X188817246Y-122556243D01*
X188850500Y-122346287D01*
X188850500Y-122133713D01*
X188817246Y-121923757D01*
X188751557Y-121721588D01*
X188655051Y-121532184D01*
X188655049Y-121532181D01*
X188655048Y-121532179D01*
X188530109Y-121360213D01*
X188379786Y-121209890D01*
X188207820Y-121084951D01*
X188207115Y-121084591D01*
X188199054Y-121080485D01*
X188148259Y-121032512D01*
X188131463Y-120964692D01*
X188153999Y-120898556D01*
X188199054Y-120859515D01*
X188207816Y-120855051D01*
X188229789Y-120839086D01*
X188379786Y-120730109D01*
X188379788Y-120730106D01*
X188379792Y-120730104D01*
X188530104Y-120579792D01*
X188530106Y-120579788D01*
X188530109Y-120579786D01*
X188655048Y-120407820D01*
X188655047Y-120407820D01*
X188655051Y-120407816D01*
X188751557Y-120218412D01*
X188817246Y-120016243D01*
X188850500Y-119806287D01*
X188850500Y-119593713D01*
X188817246Y-119383757D01*
X188751557Y-119181588D01*
X188655051Y-118992184D01*
X188655049Y-118992181D01*
X188655048Y-118992179D01*
X188530109Y-118820213D01*
X188379786Y-118669890D01*
X188207820Y-118544951D01*
X188207115Y-118544591D01*
X188199054Y-118540485D01*
X188148259Y-118492512D01*
X188131463Y-118424692D01*
X188153999Y-118358556D01*
X188199054Y-118319515D01*
X188207816Y-118315051D01*
X188229789Y-118299086D01*
X188379786Y-118190109D01*
X188379788Y-118190106D01*
X188379792Y-118190104D01*
X188530104Y-118039792D01*
X188530106Y-118039788D01*
X188530109Y-118039786D01*
X188655048Y-117867820D01*
X188655047Y-117867820D01*
X188655051Y-117867816D01*
X188751557Y-117678412D01*
X188817246Y-117476243D01*
X188850500Y-117266287D01*
X188850500Y-117053713D01*
X188817246Y-116843757D01*
X188751557Y-116641588D01*
X188655051Y-116452184D01*
X188655049Y-116452181D01*
X188655048Y-116452179D01*
X188530109Y-116280213D01*
X188379786Y-116129890D01*
X188207820Y-116004951D01*
X188207115Y-116004591D01*
X188199054Y-116000485D01*
X188148259Y-115952512D01*
X188131463Y-115884692D01*
X188153999Y-115818556D01*
X188199054Y-115779515D01*
X188207816Y-115775051D01*
X188229789Y-115759086D01*
X188379786Y-115650109D01*
X188379788Y-115650106D01*
X188379792Y-115650104D01*
X188530104Y-115499792D01*
X188530106Y-115499788D01*
X188530109Y-115499786D01*
X188655048Y-115327820D01*
X188655047Y-115327820D01*
X188655051Y-115327816D01*
X188751557Y-115138412D01*
X188817246Y-114936243D01*
X188850500Y-114726287D01*
X188850500Y-114513713D01*
X188817246Y-114303757D01*
X188751557Y-114101588D01*
X188655051Y-113912184D01*
X188655049Y-113912181D01*
X188655048Y-113912179D01*
X188530109Y-113740213D01*
X188379786Y-113589890D01*
X188207820Y-113464951D01*
X188207115Y-113464591D01*
X188199054Y-113460485D01*
X188148259Y-113412512D01*
X188131463Y-113344692D01*
X188153999Y-113278556D01*
X188199054Y-113239515D01*
X188207816Y-113235051D01*
X188229789Y-113219086D01*
X188379786Y-113110109D01*
X188379788Y-113110106D01*
X188379792Y-113110104D01*
X188530104Y-112959792D01*
X188530106Y-112959788D01*
X188530109Y-112959786D01*
X188655048Y-112787820D01*
X188655047Y-112787820D01*
X188655051Y-112787816D01*
X188751557Y-112598412D01*
X188817246Y-112396243D01*
X188850500Y-112186287D01*
X188850500Y-111973713D01*
X188817246Y-111763757D01*
X188803506Y-111721473D01*
X188801512Y-111651635D01*
X188833755Y-111595478D01*
X190580506Y-109848728D01*
X190580511Y-109848724D01*
X190590714Y-109838520D01*
X190590716Y-109838520D01*
X190702520Y-109726716D01*
X190764676Y-109619058D01*
X190781577Y-109589785D01*
X190822500Y-109437058D01*
X190822500Y-109278943D01*
X190822500Y-94209165D01*
X190822501Y-94209152D01*
X190822501Y-94041049D01*
X190781576Y-93888319D01*
X190781573Y-93888314D01*
X190702524Y-93751395D01*
X190702518Y-93751387D01*
X189687485Y-92736355D01*
X189687483Y-92736352D01*
X189645969Y-92694838D01*
X189612484Y-92633515D01*
X189617468Y-92563823D01*
X189645969Y-92519476D01*
X189674491Y-92490954D01*
X189722981Y-92442464D01*
X189839787Y-92281694D01*
X189930005Y-92104632D01*
X189991413Y-91915636D01*
X190022500Y-91719361D01*
X190022500Y-91520639D01*
X189991413Y-91324364D01*
X189948791Y-91193186D01*
X189930006Y-91135370D01*
X189930005Y-91135367D01*
X189876554Y-91030465D01*
X189839787Y-90958306D01*
X189722981Y-90797536D01*
X189582464Y-90657019D01*
X189569370Y-90647506D01*
X189502938Y-90599240D01*
X189488147Y-90586608D01*
X189391947Y-90490408D01*
X189388372Y-90488294D01*
X189335004Y-90456732D01*
X189287321Y-90405663D01*
X189274817Y-90336921D01*
X189301462Y-90272332D01*
X189335004Y-90243268D01*
X189391947Y-90209592D01*
X189488148Y-90113389D01*
X189502939Y-90100758D01*
X189582464Y-90042981D01*
X189722981Y-89902464D01*
X189839787Y-89741694D01*
X189930005Y-89564632D01*
X189991413Y-89375636D01*
X190022500Y-89179361D01*
X190022500Y-88980639D01*
X189991413Y-88784364D01*
X189939556Y-88624762D01*
X189930006Y-88595370D01*
X189930005Y-88595367D01*
X189869824Y-88477257D01*
X189839787Y-88418306D01*
X189722981Y-88257536D01*
X189582464Y-88117019D01*
X189502937Y-88059239D01*
X189488147Y-88046608D01*
X189391947Y-87950408D01*
X189335003Y-87916731D01*
X189287321Y-87865663D01*
X189274817Y-87796921D01*
X189301462Y-87732332D01*
X189335004Y-87703268D01*
X189335498Y-87702976D01*
X189391947Y-87669592D01*
X189488148Y-87573389D01*
X189502939Y-87560758D01*
X189582464Y-87502981D01*
X189722981Y-87362464D01*
X189839787Y-87201694D01*
X189930005Y-87024632D01*
X189991413Y-86835636D01*
X190022500Y-86639361D01*
X190022500Y-86440639D01*
X189991413Y-86244364D01*
X189952887Y-86125792D01*
X189930006Y-86055370D01*
X189930005Y-86055367D01*
X189860937Y-85919815D01*
X189839787Y-85878306D01*
X189722981Y-85717536D01*
X189582464Y-85577019D01*
X189502938Y-85519240D01*
X189488147Y-85506608D01*
X189391947Y-85410408D01*
X189335003Y-85376731D01*
X189287321Y-85325663D01*
X189274817Y-85256921D01*
X189301462Y-85192332D01*
X189335004Y-85163268D01*
X189391947Y-85129592D01*
X189488148Y-85033389D01*
X189502939Y-85020758D01*
X189582464Y-84962981D01*
X189722981Y-84822464D01*
X189839787Y-84661694D01*
X189930005Y-84484632D01*
X189991413Y-84295636D01*
X190022500Y-84099361D01*
X190022500Y-83900639D01*
X189991413Y-83704364D01*
X189930005Y-83515368D01*
X189930005Y-83515367D01*
X189839786Y-83338305D01*
X189722981Y-83177536D01*
X189582464Y-83037019D01*
X189502937Y-82979239D01*
X189488147Y-82966608D01*
X189391947Y-82870408D01*
X189391946Y-82870407D01*
X189391943Y-82870405D01*
X189249957Y-82786435D01*
X189249954Y-82786434D01*
X189091552Y-82740413D01*
X189091546Y-82740412D01*
X189054541Y-82737500D01*
X189054534Y-82737500D01*
X186795466Y-82737500D01*
X186795458Y-82737500D01*
X186758453Y-82740412D01*
X186758447Y-82740413D01*
X186600045Y-82786434D01*
X186600042Y-82786435D01*
X186458056Y-82870405D01*
X186458047Y-82870412D01*
X186341412Y-82987047D01*
X186341405Y-82987056D01*
X186257435Y-83129042D01*
X186257434Y-83129045D01*
X186211413Y-83287447D01*
X186211412Y-83287453D01*
X186208500Y-83324458D01*
X186208500Y-84675541D01*
X186211412Y-84712546D01*
X186211413Y-84712552D01*
X186257434Y-84870954D01*
X186257435Y-84870957D01*
X186341405Y-85012943D01*
X186341412Y-85012952D01*
X186458047Y-85129587D01*
X186458050Y-85129589D01*
X186458053Y-85129592D01*
X186514996Y-85163268D01*
X186562679Y-85214338D01*
X186575182Y-85283079D01*
X186548536Y-85347669D01*
X186514996Y-85376731D01*
X186458056Y-85410406D01*
X186458053Y-85410408D01*
X186458047Y-85410412D01*
X186341412Y-85527047D01*
X186341405Y-85527056D01*
X186257435Y-85669042D01*
X186257434Y-85669045D01*
X186211413Y-85827447D01*
X186210274Y-85833688D01*
X186208487Y-85833361D01*
X186186706Y-85890514D01*
X186130476Y-85931987D01*
X186087970Y-85939500D01*
X185819437Y-85939500D01*
X185752398Y-85919815D01*
X185731756Y-85903181D01*
X181097104Y-81268529D01*
X181063619Y-81207206D01*
X181068603Y-81137514D01*
X181110475Y-81081581D01*
X181175939Y-81057164D01*
X181244212Y-81072016D01*
X181260271Y-81082472D01*
X181316035Y-81125261D01*
X181316042Y-81125265D01*
X181537457Y-81253100D01*
X181537462Y-81253102D01*
X181537465Y-81253104D01*
X181773687Y-81350950D01*
X182020660Y-81417126D01*
X182274157Y-81450500D01*
X182274164Y-81450500D01*
X183429836Y-81450500D01*
X183429843Y-81450500D01*
X183683340Y-81417126D01*
X183930313Y-81350950D01*
X184166535Y-81253104D01*
X184387965Y-81125261D01*
X184590813Y-80969610D01*
X184771610Y-80788813D01*
X184927261Y-80585965D01*
X185055104Y-80364535D01*
X185152950Y-80128313D01*
X185219126Y-79881340D01*
X185252500Y-79627843D01*
X185252500Y-79372157D01*
X185219126Y-79118660D01*
X185152950Y-78871687D01*
X185055104Y-78635465D01*
X185055102Y-78635462D01*
X185055100Y-78635457D01*
X184927265Y-78414042D01*
X184927261Y-78414035D01*
X184771610Y-78211187D01*
X184771605Y-78211181D01*
X184590818Y-78030394D01*
X184590811Y-78030388D01*
X184387973Y-77874745D01*
X184387971Y-77874743D01*
X184387965Y-77874739D01*
X184387960Y-77874736D01*
X184387957Y-77874734D01*
X184166542Y-77746899D01*
X184166531Y-77746894D01*
X183930322Y-77649053D01*
X183930315Y-77649051D01*
X183930313Y-77649050D01*
X183683340Y-77582874D01*
X183627007Y-77575457D01*
X183429850Y-77549500D01*
X183429843Y-77549500D01*
X182274157Y-77549500D01*
X182274149Y-77549500D01*
X182048826Y-77579165D01*
X182020660Y-77582874D01*
X181773687Y-77649050D01*
X181773677Y-77649053D01*
X181537468Y-77746894D01*
X181537457Y-77746899D01*
X181316042Y-77874734D01*
X181316026Y-77874745D01*
X181113188Y-78030388D01*
X181113181Y-78030394D01*
X180932394Y-78211181D01*
X180932388Y-78211188D01*
X180776745Y-78414026D01*
X180776734Y-78414042D01*
X180648899Y-78635457D01*
X180648894Y-78635468D01*
X180551053Y-78871677D01*
X180551050Y-78871687D01*
X180484874Y-79118661D01*
X180451500Y-79372149D01*
X180451500Y-79627850D01*
X180475128Y-79807313D01*
X180484874Y-79881340D01*
X180551050Y-80128312D01*
X180551053Y-80128322D01*
X180648894Y-80364531D01*
X180648899Y-80364542D01*
X180776734Y-80585957D01*
X180776745Y-80585973D01*
X180819527Y-80641728D01*
X180844721Y-80706897D01*
X180830682Y-80775342D01*
X180781868Y-80825331D01*
X180713777Y-80840995D01*
X180648027Y-80817358D01*
X180633470Y-80804895D01*
X174906205Y-75077630D01*
X174872720Y-75016307D01*
X174877704Y-74946615D01*
X174906201Y-74902272D01*
X174993828Y-74814646D01*
X175105184Y-74661378D01*
X175160512Y-74618714D01*
X175230125Y-74612735D01*
X175291920Y-74645341D01*
X175326277Y-74706179D01*
X175329500Y-74734263D01*
X175329500Y-74797869D01*
X175329501Y-74797876D01*
X175335908Y-74857483D01*
X175386202Y-74992328D01*
X175386206Y-74992335D01*
X175472452Y-75107544D01*
X175472455Y-75107547D01*
X175587664Y-75193793D01*
X175587671Y-75193797D01*
X175722517Y-75244091D01*
X175722516Y-75244091D01*
X175729444Y-75244835D01*
X175782127Y-75250500D01*
X177377872Y-75250499D01*
X177437483Y-75244091D01*
X177572331Y-75193796D01*
X177687546Y-75107546D01*
X177773796Y-74992331D01*
X177824091Y-74857483D01*
X177830500Y-74797873D01*
X177830499Y-73650095D01*
X177850184Y-73583057D01*
X177866813Y-73562420D01*
X178668506Y-72760728D01*
X178668511Y-72760724D01*
X178678714Y-72750520D01*
X178678716Y-72750520D01*
X178790520Y-72638716D01*
X178869577Y-72501784D01*
X178910500Y-72349057D01*
X178910500Y-70610791D01*
X178930185Y-70543752D01*
X178961612Y-70510475D01*
X179092073Y-70415690D01*
X179225690Y-70282073D01*
X179336760Y-70129199D01*
X179422547Y-69960832D01*
X179480940Y-69781118D01*
X179485274Y-69753752D01*
X179510500Y-69594486D01*
X179510500Y-69405513D01*
X179480940Y-69218881D01*
X179422545Y-69039163D01*
X179336759Y-68870800D01*
X179225690Y-68717927D01*
X179092073Y-68584310D01*
X178939199Y-68473240D01*
X178770836Y-68387454D01*
X178591118Y-68329059D01*
X178404486Y-68299500D01*
X178404481Y-68299500D01*
X178215519Y-68299500D01*
X178215514Y-68299500D01*
X178028881Y-68329059D01*
X177849163Y-68387454D01*
X177680800Y-68473240D01*
X177593579Y-68536610D01*
X177527927Y-68584310D01*
X177527925Y-68584312D01*
X177527924Y-68584312D01*
X177394312Y-68717924D01*
X177394312Y-68717925D01*
X177394310Y-68717927D01*
X177346610Y-68783579D01*
X177283240Y-68870800D01*
X177197454Y-69039163D01*
X177139059Y-69218881D01*
X177109500Y-69405513D01*
X177109500Y-69594486D01*
X177139059Y-69781118D01*
X177197454Y-69960836D01*
X177283240Y-70129199D01*
X177394310Y-70282073D01*
X177527927Y-70415690D01*
X177658386Y-70510474D01*
X177701051Y-70565803D01*
X177709500Y-70610791D01*
X177709500Y-71969902D01*
X177689815Y-72036941D01*
X177673181Y-72057583D01*
X177017583Y-72713181D01*
X176956260Y-72746666D01*
X176929902Y-72749500D01*
X175782129Y-72749500D01*
X175782123Y-72749501D01*
X175722516Y-72755908D01*
X175587671Y-72806202D01*
X175587664Y-72806206D01*
X175472455Y-72892452D01*
X175472452Y-72892455D01*
X175386206Y-73007664D01*
X175386202Y-73007671D01*
X175335908Y-73142517D01*
X175329501Y-73202116D01*
X175329500Y-73202135D01*
X175329500Y-73265732D01*
X175309815Y-73332771D01*
X175257011Y-73378526D01*
X175187853Y-73388470D01*
X175124297Y-73359445D01*
X175105182Y-73338618D01*
X175006006Y-73202116D01*
X174993828Y-73185354D01*
X174854646Y-73046172D01*
X174801654Y-73007671D01*
X174691614Y-72927721D01*
X174648949Y-72872390D01*
X174640500Y-72827403D01*
X174640500Y-72770944D01*
X174640500Y-72770943D01*
X174634754Y-72749500D01*
X174629534Y-72730019D01*
X174599577Y-72618216D01*
X174532355Y-72501783D01*
X174520524Y-72481290D01*
X174520521Y-72481286D01*
X174520520Y-72481284D01*
X174408716Y-72369480D01*
X174408715Y-72369479D01*
X174404385Y-72365149D01*
X174404374Y-72365139D01*
X171900066Y-69860831D01*
X171866581Y-69799508D01*
X171865274Y-69753752D01*
X171890500Y-69594486D01*
X171890500Y-69405513D01*
X171860940Y-69218881D01*
X171802545Y-69039163D01*
X171716759Y-68870800D01*
X171605690Y-68717927D01*
X171472073Y-68584310D01*
X171319199Y-68473240D01*
X171150836Y-68387454D01*
X170971118Y-68329059D01*
X170784486Y-68299500D01*
X170784481Y-68299500D01*
X170595519Y-68299500D01*
X170595514Y-68299500D01*
X170408881Y-68329059D01*
X170229163Y-68387454D01*
X170060800Y-68473240D01*
X169973579Y-68536610D01*
X169907927Y-68584310D01*
X169907925Y-68584312D01*
X169907924Y-68584312D01*
X169774312Y-68717924D01*
X169774312Y-68717925D01*
X169774310Y-68717927D01*
X169726610Y-68783579D01*
X169663240Y-68870800D01*
X169577454Y-69039163D01*
X169519059Y-69218881D01*
X169489500Y-69405513D01*
X169489500Y-69594486D01*
X169519059Y-69781118D01*
X169577454Y-69960836D01*
X169663240Y-70129199D01*
X169774310Y-70282073D01*
X169907927Y-70415690D01*
X170060801Y-70526760D01*
X170094150Y-70543752D01*
X170229163Y-70612545D01*
X170229165Y-70612545D01*
X170229168Y-70612547D01*
X170325497Y-70643846D01*
X170408881Y-70670940D01*
X170595514Y-70700500D01*
X170595519Y-70700500D01*
X170784486Y-70700500D01*
X170901017Y-70682042D01*
X170943753Y-70675274D01*
X171013045Y-70684228D01*
X171050831Y-70710066D01*
X173218464Y-72877699D01*
X173251949Y-72939022D01*
X173246965Y-73008714D01*
X173218465Y-73053061D01*
X173086171Y-73185355D01*
X172970476Y-73344594D01*
X172880485Y-73521213D01*
X172832511Y-73572009D01*
X172764690Y-73588804D01*
X172698555Y-73566267D01*
X172659515Y-73521213D01*
X172591879Y-73388470D01*
X172569524Y-73344595D01*
X172453828Y-73185354D01*
X172314646Y-73046172D01*
X172155405Y-72930476D01*
X172100499Y-72902500D01*
X171980029Y-72841117D01*
X171792826Y-72780290D01*
X171598422Y-72749500D01*
X171598417Y-72749500D01*
X171401583Y-72749500D01*
X171401578Y-72749500D01*
X171207173Y-72780290D01*
X171019970Y-72841117D01*
X170844594Y-72930476D01*
X170778942Y-72978176D01*
X170685354Y-73046172D01*
X170685352Y-73046174D01*
X170685351Y-73046174D01*
X170546174Y-73185351D01*
X170546174Y-73185352D01*
X170546172Y-73185354D01*
X170533994Y-73202116D01*
X170430476Y-73344594D01*
X170340204Y-73521764D01*
X170292229Y-73572560D01*
X170224408Y-73589355D01*
X170158274Y-73566818D01*
X170119234Y-73521764D01*
X170029096Y-73344858D01*
X170003678Y-73309873D01*
X170003677Y-73309873D01*
X169360000Y-73953551D01*
X169360000Y-73947339D01*
X169332741Y-73845606D01*
X169280080Y-73754394D01*
X169205606Y-73679920D01*
X169114394Y-73627259D01*
X169012661Y-73600000D01*
X169006447Y-73600000D01*
X169650125Y-72956320D01*
X169650125Y-72956319D01*
X169615145Y-72930905D01*
X169439835Y-72841581D01*
X169252705Y-72780778D01*
X169058382Y-72750000D01*
X168861618Y-72750000D01*
X168667294Y-72780778D01*
X168480161Y-72841582D01*
X168304863Y-72930899D01*
X168304859Y-72930902D01*
X168269873Y-72956320D01*
X168269872Y-72956320D01*
X168913554Y-73600000D01*
X168907339Y-73600000D01*
X168805606Y-73627259D01*
X168714394Y-73679920D01*
X168639920Y-73754394D01*
X168587259Y-73845606D01*
X168560000Y-73947339D01*
X168560000Y-73953552D01*
X167916320Y-73309872D01*
X167916320Y-73309873D01*
X167890902Y-73344859D01*
X167890899Y-73344863D01*
X167801582Y-73520161D01*
X167740778Y-73707294D01*
X167710000Y-73901617D01*
X167710000Y-74098382D01*
X167740778Y-74292705D01*
X167801581Y-74479835D01*
X167890905Y-74655145D01*
X167916319Y-74690125D01*
X167916320Y-74690125D01*
X168560000Y-74046445D01*
X168560000Y-74052661D01*
X168587259Y-74154394D01*
X168639920Y-74245606D01*
X168714394Y-74320080D01*
X168805606Y-74372741D01*
X168907339Y-74400000D01*
X168913553Y-74400000D01*
X168269873Y-75043677D01*
X168269873Y-75043678D01*
X168304858Y-75069096D01*
X168480164Y-75158418D01*
X168667294Y-75219221D01*
X168861618Y-75250000D01*
X169058382Y-75250000D01*
X169252705Y-75219221D01*
X169439835Y-75158418D01*
X169615143Y-75069095D01*
X169650125Y-75043678D01*
X169650126Y-75043678D01*
X169006448Y-74400000D01*
X169012661Y-74400000D01*
X169114394Y-74372741D01*
X169205606Y-74320080D01*
X169280080Y-74245606D01*
X169332741Y-74154394D01*
X169360000Y-74052661D01*
X169360000Y-74046447D01*
X170003678Y-74690126D01*
X170003678Y-74690125D01*
X170029097Y-74655141D01*
X170119234Y-74478236D01*
X170167208Y-74427439D01*
X170235029Y-74410644D01*
X170301164Y-74433181D01*
X170340204Y-74478235D01*
X170341115Y-74480024D01*
X170341116Y-74480025D01*
X170430476Y-74655405D01*
X170546172Y-74814646D01*
X170685354Y-74953828D01*
X170844595Y-75069524D01*
X170919214Y-75107544D01*
X171019970Y-75158882D01*
X171019972Y-75158882D01*
X171019975Y-75158884D01*
X171120317Y-75191487D01*
X171207173Y-75219709D01*
X171401578Y-75250500D01*
X171401583Y-75250500D01*
X171598422Y-75250500D01*
X171792826Y-75219709D01*
X171872574Y-75193797D01*
X171980025Y-75158884D01*
X172155405Y-75069524D01*
X172314646Y-74953828D01*
X172453828Y-74814646D01*
X172569524Y-74655405D01*
X172658884Y-74480025D01*
X172659515Y-74478787D01*
X172707489Y-74427990D01*
X172775310Y-74411195D01*
X172841445Y-74433732D01*
X172880485Y-74478787D01*
X172970474Y-74655403D01*
X172974817Y-74661380D01*
X173086172Y-74814646D01*
X173225354Y-74953828D01*
X173316686Y-75020185D01*
X173384596Y-75069525D01*
X173385600Y-75070140D01*
X173385901Y-75070473D01*
X173388537Y-75072388D01*
X173388134Y-75072941D01*
X173432476Y-75121952D01*
X173440586Y-75143774D01*
X173480423Y-75292445D01*
X173509358Y-75342560D01*
X173509359Y-75342564D01*
X173509360Y-75342564D01*
X173559479Y-75429374D01*
X173559481Y-75429377D01*
X173678349Y-75548245D01*
X173678355Y-75548250D01*
X185034479Y-86904374D01*
X185034489Y-86904385D01*
X185038819Y-86908715D01*
X185038820Y-86908716D01*
X185150624Y-87020520D01*
X185173294Y-87033608D01*
X185237435Y-87070639D01*
X185237437Y-87070641D01*
X185287425Y-87099502D01*
X185287555Y-87099577D01*
X185440282Y-87140500D01*
X185440283Y-87140500D01*
X186087970Y-87140500D01*
X186155009Y-87160185D01*
X186200764Y-87212989D01*
X186209435Y-87246465D01*
X186210274Y-87246312D01*
X186211413Y-87252552D01*
X186257434Y-87410954D01*
X186257435Y-87410957D01*
X186341405Y-87552943D01*
X186341412Y-87552952D01*
X186458047Y-87669587D01*
X186458050Y-87669589D01*
X186458053Y-87669592D01*
X186514502Y-87702976D01*
X186514996Y-87703268D01*
X186562679Y-87754338D01*
X186575182Y-87823079D01*
X186548536Y-87887669D01*
X186514996Y-87916732D01*
X186458053Y-87950408D01*
X186458047Y-87950412D01*
X186341412Y-88067047D01*
X186341405Y-88067056D01*
X186257435Y-88209042D01*
X186257434Y-88209045D01*
X186211413Y-88367447D01*
X186210274Y-88373688D01*
X186208487Y-88373361D01*
X186186706Y-88430514D01*
X186130476Y-88471987D01*
X186087970Y-88479500D01*
X154420098Y-88479500D01*
X154353059Y-88459815D01*
X154332417Y-88443181D01*
X151992159Y-86102923D01*
X151958674Y-86041600D01*
X151961908Y-85976925D01*
X152021090Y-85794785D01*
X152060500Y-85545962D01*
X152060500Y-85294038D01*
X152021090Y-85045215D01*
X151943241Y-84805621D01*
X151943239Y-84805618D01*
X151943239Y-84805616D01*
X151895817Y-84712546D01*
X151828870Y-84581155D01*
X151722036Y-84434110D01*
X151680798Y-84377350D01*
X151680794Y-84377345D01*
X151502654Y-84199205D01*
X151502649Y-84199201D01*
X151298848Y-84051132D01*
X151298847Y-84051131D01*
X151298845Y-84051130D01*
X151228747Y-84015413D01*
X151074383Y-83936760D01*
X150834785Y-83858910D01*
X150585962Y-83819500D01*
X150334038Y-83819500D01*
X150209626Y-83839205D01*
X150085214Y-83858910D01*
X149845616Y-83936760D01*
X149621151Y-84051132D01*
X149417350Y-84199201D01*
X149417345Y-84199205D01*
X149239205Y-84377345D01*
X149239201Y-84377350D01*
X149091132Y-84581151D01*
X148976760Y-84805616D01*
X148898910Y-85045214D01*
X148859500Y-85294038D01*
X130500500Y-85294038D01*
X130500500Y-84434110D01*
X130500500Y-84434108D01*
X130466392Y-84306814D01*
X130400500Y-84192686D01*
X130307314Y-84099500D01*
X130250250Y-84066554D01*
X130193187Y-84033608D01*
X130129539Y-84016554D01*
X130065892Y-83999500D01*
X130065891Y-83999500D01*
X127124500Y-83999500D01*
X127057461Y-83979815D01*
X127011706Y-83927011D01*
X127000500Y-83875500D01*
X127000500Y-79624500D01*
X127020185Y-79557461D01*
X127072989Y-79511706D01*
X127124500Y-79500500D01*
X157565890Y-79500500D01*
X157565892Y-79500500D01*
X157693186Y-79466392D01*
X157807314Y-79400500D01*
X157887819Y-79319995D01*
X157949142Y-79286510D01*
X158018834Y-79291494D01*
X158074767Y-79333366D01*
X158099184Y-79398830D01*
X158099500Y-79407676D01*
X158099500Y-79627850D01*
X158123128Y-79807313D01*
X158132874Y-79881340D01*
X158199050Y-80128312D01*
X158199053Y-80128322D01*
X158296894Y-80364531D01*
X158296899Y-80364542D01*
X158424734Y-80585957D01*
X158424745Y-80585973D01*
X158580388Y-80788811D01*
X158580394Y-80788818D01*
X158761181Y-80969605D01*
X158761187Y-80969610D01*
X158964035Y-81125261D01*
X158964042Y-81125265D01*
X159185457Y-81253100D01*
X159185462Y-81253102D01*
X159185465Y-81253104D01*
X159421687Y-81350950D01*
X159668660Y-81417126D01*
X159922157Y-81450500D01*
X159922164Y-81450500D01*
X161077836Y-81450500D01*
X161077843Y-81450500D01*
X161331340Y-81417126D01*
X161578313Y-81350950D01*
X161814535Y-81253104D01*
X162035965Y-81125261D01*
X162238813Y-80969610D01*
X162419610Y-80788813D01*
X162575261Y-80585965D01*
X162703104Y-80364535D01*
X162800950Y-80128313D01*
X162867126Y-79881340D01*
X162900500Y-79627843D01*
X162900500Y-79372157D01*
X162867126Y-79118660D01*
X162800950Y-78871687D01*
X162703104Y-78635465D01*
X162703102Y-78635462D01*
X162703100Y-78635457D01*
X162575265Y-78414042D01*
X162575261Y-78414035D01*
X162419610Y-78211187D01*
X162419605Y-78211181D01*
X162238818Y-78030394D01*
X162238811Y-78030388D01*
X162035973Y-77874745D01*
X162035971Y-77874743D01*
X162035965Y-77874739D01*
X162035960Y-77874736D01*
X162035957Y-77874734D01*
X161814542Y-77746899D01*
X161814531Y-77746894D01*
X161578322Y-77649053D01*
X161578315Y-77649051D01*
X161578313Y-77649050D01*
X161331340Y-77582874D01*
X161275007Y-77575457D01*
X161077850Y-77549500D01*
X161077843Y-77549500D01*
X160957676Y-77549500D01*
X160890637Y-77529815D01*
X160844882Y-77477011D01*
X160834938Y-77407853D01*
X160863963Y-77344297D01*
X160869995Y-77337819D01*
X160900500Y-77307314D01*
X160966392Y-77193186D01*
X161000500Y-77065892D01*
X161000500Y-71124500D01*
X161020185Y-71057461D01*
X161072989Y-71011706D01*
X161124500Y-71000500D01*
X164065890Y-71000500D01*
X164065892Y-71000500D01*
X164193186Y-70966392D01*
X164307314Y-70900500D01*
X164400500Y-70807314D01*
X164466392Y-70693186D01*
X164500500Y-70565892D01*
X164500500Y-64624500D01*
X164520185Y-64557461D01*
X164572989Y-64511706D01*
X164624500Y-64500500D01*
X167565890Y-64500500D01*
X167565892Y-64500500D01*
X167693186Y-64466392D01*
X167807314Y-64400500D01*
X167900500Y-64307314D01*
X167966392Y-64193186D01*
X168000500Y-64065892D01*
X168000500Y-61124500D01*
X168020185Y-61057461D01*
X168072989Y-61011706D01*
X168124500Y-61000500D01*
X171065890Y-61000500D01*
X171065892Y-61000500D01*
X171193186Y-60966392D01*
X171307314Y-60900500D01*
X171400500Y-60807314D01*
X171466392Y-60693186D01*
X171500500Y-60565892D01*
X171500500Y-54124500D01*
X171520185Y-54057461D01*
X171572989Y-54011706D01*
X171624500Y-54000500D01*
X176875500Y-54000500D01*
X176942539Y-54020185D01*
G37*
%TD.AperFunction*%
%TD*%
M02*
